<?xml version="1.0" standalone="no"?>
<!DOCTYPE svg PUBLIC "-//W3C//DTD SVG 1.1//EN" "http://www.w3.org/Graphics/SVG/1.1/DTD/svg11.dtd" >
<svg xmlns="http://www.w3.org/2000/svg" xmlns:xlink="http://www.w3.org/1999/xlink" version="1.1">
<metadata>
Created by FontForge 20150318 at Tue Nov  3 23:48:58 2015
 By uniteet7
Typeface (c)2008 Essque' Productions. All Rights Reserved
</metadata>
<defs>
<font id="AvanteGo" horiz-adv-x="1014" >
  <font-face 
    font-family="Avante Go"
    font-weight="400"
    font-stretch="normal"
    units-per-em="2048"
    panose-1="2 0 5 0 0 0 0 0 0 0"
    ascent="1638"
    descent="-410"
    x-height="912"
    cap-height="1432"
    bbox="-595 -437 3569.87 1832"
    underline-thickness="150"
    underline-position="-142"
    unicode-range="U+0020-F002"
  />
<missing-glyph horiz-adv-x="1221" 
d="M1033 0h-965v1434h965v-1250q-31 0 -59 21v1179h-847v-1334h847v105q28 -10 59 -13v-142zM335 1054h240v-20h-4q-76 0 -76 -64v-172l12 -4q200 180 200 220q0 17 -48 20v20h204v-20q-74 0 -248 -196l-32 -32l40 4h84q178 0 212 -128l4 -36q0 -101 -124 -180
q29 -139 104 -224q72 -72 160 -72q41 0 60 28q3 7 3 14q0 16 -18 29l-33 -7q23 23 45 23h8q25 -5 27 -35q0 -48 -80 -64h-40q-181 0 -300 244q0 21 -12 24q-105 -32 -200 -32q-296 0 -364 204l-8 44q0 122 164 164l76 8h24v124q0 92 -36 92l-40 4h-4v20zM235 630
q0 -153 168 -204q47 -16 128 -20q98 0 192 40q-25 92 -80 188q-70 95 -136 136h-4l-8 -8v-140q0 -100 24 -100q12 -12 52 -12h4v-20h-240v20h12q68 0 68 64v224h-20q-125 0 -156 -132zM543 782v-4q159 -68 220 -200l32 -68q32 61 32 104v12q0 111 -120 156q-16 8 -72 12z
" />
    <glyph glyph-name=".notdef" horiz-adv-x="1221" 
d="M1033 0h-965v1434h965v-1250q-31 0 -59 21v1179h-847v-1334h847v105q28 -10 59 -13v-142zM335 1054h240v-20h-4q-76 0 -76 -64v-172l12 -4q200 180 200 220q0 17 -48 20v20h204v-20q-74 0 -248 -196l-32 -32l40 4h84q178 0 212 -128l4 -36q0 -101 -124 -180
q29 -139 104 -224q72 -72 160 -72q41 0 60 28q3 7 3 14q0 16 -18 29l-33 -7q23 23 45 23h8q25 -5 27 -35q0 -48 -80 -64h-40q-181 0 -300 244q0 21 -12 24q-105 -32 -200 -32q-296 0 -364 204l-8 44q0 122 164 164l76 8h24v124q0 92 -36 92l-40 4h-4v20zM235 630
q0 -153 168 -204q47 -16 128 -20q98 0 192 40q-25 92 -80 188q-70 95 -136 136h-4l-8 -8v-140q0 -100 24 -100q12 -12 52 -12h4v-20h-240v20h12q68 0 68 64v224h-20q-125 0 -156 -132zM543 782v-4q159 -68 220 -200l32 -68q32 61 32 104v12q0 111 -120 156q-16 8 -72 12z
" />
    <glyph glyph-name=".null" horiz-adv-x="0" 
 />
    <glyph glyph-name="nonmarkingreturn" horiz-adv-x="508" 
 />
    <glyph glyph-name="space" unicode=" " horiz-adv-x="399" 
 />
    <glyph glyph-name="space" unicode="&#xa0;" horiz-adv-x="399" 
 />
    <glyph glyph-name="exclam" unicode="!" horiz-adv-x="219" 
d="M152 114q19 -19 19 -45q0 -27 -19 -45.5t-45 -18.5q-27 0 -45.5 18.5t-18.5 45.5q0 26 18.5 45t45.5 19q26 0 45 -19zM170 1432v-1160h-135v1160h135z" />
    <glyph glyph-name="quotedbl" unicode="&#x22;" horiz-adv-x="490" 
d="M51 1270v325h120v-325h-120zM299 1270v325h120v-325h-120z" />
    <glyph glyph-name="numbersign" unicode="#" horiz-adv-x="2223" 
d="M606 610l309 309h-448v120h568l393 393h192l-393 -393h403l393 393h192l-393 -393h371v-120h-491l-309 -309h514v-120h-634l-490 -490h-192l490 490h-403l-490 -490h-192l490 490h-388v120h508zM1107 919l-309 -309h403l309 309h-403z" />
    <glyph glyph-name="dollar" unicode="$" 
d="M559 793v-679q106 17 185 96q101 101 101 243q0 143 -101 244q-79 79 -185 96zM439 1301q-50 -12 -80 -41q-48 -48 -48 -148q0 -82 40 -136q26 -37 88 -52v377zM439 805q-90 17 -158 86q-92 92 -92 221q0 130 92 222q68 68 158 85v106h120v-105q91 -16 161 -84l-77 -77
q-32 32 -84 43v-393q153 -18 266 -130q133 -134 133 -323t-133 -322q-113 -113 -266 -131v-124h-120v125q-149 19 -259 130q-133 132 -134 318h109q0 -141 101 -242q79 -79 183 -96v691z" />
    <glyph glyph-name="percent" unicode="%" horiz-adv-x="1869" 
d="M-87 0l1432 1432h192l-1432 -1432h-192zM661.5 1340.5q91.5 -91.5 91.5 -221.5t-91.5 -221.5t-221.5 -91.5t-221.5 91.5t-91.5 221.5t91.5 221.5t221.5 91.5t221.5 -91.5zM443 919q83 0 141.5 58.5t58.5 140.5q0 83 -58.5 142t-141.5 59t-142 -59t-59 -142
q0 -82 59 -140.5t142 -58.5zM1390 912q189 0 322.5 -133.5t133.5 -322.5t-133.5 -322.5t-322.5 -133.5t-322.5 133.5t-133.5 322.5t133.5 322.5t322.5 133.5zM1388 798q-143 0 -244 -101t-101 -244q0 -142 101 -243t244 -101t244 101t101 243q0 143 -101 244t-244 101z" />
    <glyph glyph-name="ampersand" unicode="&#x26;" horiz-adv-x="1439" 
d="M513 1326q-85 0 -146 -60.5t-61 -146.5t154 -214q139 7 200 67.5t61 146.5t-61 146.5t-147 60.5zM549 804l398 -398l298 296l146 -3l-367 -370l516 -510h-176l-424 424l-108 -109q-134 -134 -323 -134t-322.5 133.5t-133.5 322.5t134 323q59 59 130 92q-15 13 -29 27
q-92 92 -92 221q0 130 91.5 221.5t221.5 91.5q129 0 220.5 -91.5t91.5 -221.5q0 -129 -91 -221q-75 -73 -181 -94zM401 782q-77 -24 -138 -85q-101 -101 -101 -244q0 -142 101 -243t244 -101t244 101l111 111z" />
    <glyph glyph-name="quotesingle" unicode="'" horiz-adv-x="249" 
d="M51 1270v325h120v-325h-120z" />
    <glyph glyph-name="parenleft" unicode="(" horiz-adv-x="505" 
d="M24 714q0 489 342 808l90 -90l-3 -3q-298 -297 -298 -717q0 -412 288 -706l-80 -96q-339 320 -339 804z" />
    <glyph glyph-name="parenright" unicode=")" horiz-adv-x="497" 
d="M117 -90l-81 96q289 294 289 706q0 420 -299 717q-1 1 -2 3l90 90q342 -319 342 -808q0 -484 -339 -804z" />
    <glyph glyph-name="asterisk" unicode="*" horiz-adv-x="859" 
d="M414 1296l136 136v-136h256l-256 -126v-258l-173 173l-340 -166l253 253l-124 124h248zM324 1236l48 -49l-99 -99l133 65l68 -68v102l101 49h-101v53l-53 -53h-97z" />
    <glyph glyph-name="plus" unicode="+" horiz-adv-x="693" 
d="M287 799h-204v120h204v204h120v-204h203v-120h-203v-203h-120v203z" />
    <glyph glyph-name="comma" unicode="," horiz-adv-x="203" 
d="M57 109q2 3 5 5q18 19 45 19q26 0 45 -19t19 -45q0 -27 -19 -45q-2 -3 -5 -5l-95 -95l-90 90z" />
    <glyph glyph-name="hyphen" unicode="-" horiz-adv-x="497" 
d="M83 919h325v-120h-325v120z" />
    <glyph glyph-name="hyphen" unicode="&#xad;" horiz-adv-x="497" 
d="M83 919h325v-120h-325v120z" />
    <glyph glyph-name="period" unicode="." horiz-adv-x="219" 
d="M152.5 114q18.5 -19 18.5 -45q0 -27 -18.5 -45.5t-45.5 -18.5q-26 0 -45 18.5t-19 45.5q0 26 19 45t45 19q27 0 45.5 -19z" />
    <glyph glyph-name="slash" unicode="/" horiz-adv-x="1620" 
d="M-4 0l1432 1432h192l-1432 -1432h-192z" />
    <glyph glyph-name="zero" unicode="0" horiz-adv-x="1440" 
d="M1198 1145q196 -196 196 -475q0 -278 -196 -474t-475 -196q-278 0 -474 196t-196 474q0 279 196 475t474 196q279 0 475 -196zM722 118q227 0 388 160.5t161 387.5t-161 388t-388 161t-388 -161t-161 -388t161 -387.5t388 -160.5z" />
    <glyph glyph-name="one" unicode="1" horiz-adv-x="739" 
d="M558 1423v9h135v-1432h-135v1232l-320 -320h-191z" />
    <glyph glyph-name="two" unicode="2" horiz-adv-x="1138" 
d="M-53 0l808 808h-1q236 211 237 306q0 105 -52.5 158.5t-138.5 53.5q-85 0 -146 -60.5t-61 -146.5v-11h-110v11q0 130 91.5 221.5t221.5 91.5q129 0 220.5 -91.5t91.5 -221.5q0 -129 -112 -240l-759 -759h878v-120h-1168z" />
    <glyph glyph-name="three" unicode="3" 
d="M780 1316h-411l-1 116l694 1l-523 -524q156 -16 271 -130q133 -134 133 -323t-133.5 -322.5t-322.5 -133.5t-322 134q-133 132 -134 318h109q0 -141 101 -242t244 -101t244 101t101 243q0 143 -101 244t-244 101l-219 1z" />
    <glyph glyph-name="four" unicode="4" horiz-adv-x="874" 
d="M672 1431h136v-1439h-136v799h-449l-192 -1zM672 926v314l-314 -314h314z" />
    <glyph glyph-name="five" unicode="5" horiz-adv-x="829" 
d="M269 909q25 3 51 3q189 0 322.5 -133.5t133.5 -322.5t-133.5 -322.5t-322.5 -133.5q-184 0 -315 126l76 77q99 -94 237 -94q143 0 244 101t101 243q0 143 -101 244t-244 101h-184v633h15v1h573v-135h-453v-388z" />
    <glyph glyph-name="six" unicode="6" 
d="M263 697q-101 -101 -101 -244q0 -142 101 -243t244 -101t244 101t101 243q0 143 -101 244t-244 101q-109 0 -194 -59zM485 911q12 1 24 1q189 0 322.5 -133.5t133.5 -322.5t-133.5 -322.5t-322.5 -133.5t-322.5 133.5t-133.5 322.5q0 187 131 320l652 656h170z" />
    <glyph glyph-name="seven" unicode="7" horiz-adv-x="1650" 
d="M1296 1300h-640v135h792v-3h172l-1431 -1433l-193 1z" />
    <glyph glyph-name="eight" unicode="8" 
d="M507 798q-143 0 -244 -101t-101 -244q0 -142 101 -243t244 -101t244 101t101 243q0 143 -101 244t-244 101zM513 1326q-85 0 -146 -60.5t-61 -146.5t61 -146.5t146 -60.5q86 0 147 60.5t61 146.5t-61 146.5t-147 60.5zM700 872q71 -33 132 -93q133 -134 133 -323
t-133.5 -322.5t-322.5 -133.5t-322.5 133.5t-133.5 322.5t134 323q59 59 130 92q-15 13 -29 27q-92 92 -92 221q0 130 91.5 221.5t221.5 91.5q129 0 220.5 -91.5t91.5 -221.5q0 -129 -91 -221q-15 -14 -30 -26z" />
    <glyph glyph-name="nine" unicode="9" horiz-adv-x="1146" 
d="M800 1326q-85 0 -146 -60.5t-61 -146.5t61 -146.5t146 -60.5q86 0 147 60.5t61 146.5t-61 146.5t-147 60.5zM-53 0l808 808q-104 13 -180 90q-92 92 -92 221q0 130 91.5 221.5t221.5 91.5q129 0 220.5 -91.5t91.5 -221.5q0 -129 -91 -221q-11 -10 -21 -19l-879 -879h-170
z" />
    <glyph glyph-name="colon" unicode=":" horiz-adv-x="226" 
d="M162.5 908q18.5 -19 18.5 -45q0 -27 -18.5 -45.5t-45.5 -18.5q-26 0 -45 18.5t-19 45.5q0 26 19 45t45 19q27 0 45.5 -19zM152.5 114q18.5 -19 18.5 -45q0 -27 -18.5 -45.5t-45.5 -18.5q-26 0 -45 18.5t-19 45.5q0 26 19 45t45 19q27 0 45.5 -19z" />
    <glyph glyph-name="semicolon" unicode=";" horiz-adv-x="241" 
d="M162 908q19 -19 19 -45q0 -27 -19 -45.5t-45 -18.5q-27 0 -45.5 18.5t-18.5 45.5q0 26 18.5 45t45.5 19q26 0 45 -19zM57 109q2 3 5 5q18 19 45 19q26 0 45 -19t19 -45q0 -27 -19 -45q-2 -3 -5 -5l-95 -95l-90 90z" />
    <glyph glyph-name="semicolon" unicode="&#x37e;" horiz-adv-x="241" 
d="M162 908q19 -19 19 -45q0 -27 -19 -45.5t-45 -18.5q-27 0 -45.5 18.5t-18.5 45.5q0 26 18.5 45t45.5 19q26 0 45 -19zM57 109q2 3 5 5q18 19 45 19q26 0 45 -19t19 -45q0 -27 -19 -45q-2 -3 -5 -5l-95 -95l-90 90z" />
    <glyph glyph-name="less" unicode="&#x3c;" horiz-adv-x="731" 
d="M37 656l474 474h170l-354 -354h363v-120h-653z" />
    <glyph glyph-name="equal" unicode="=" horiz-adv-x="701" 
d="M83 1024h527v-120h-527v120zM83 776h527v-120h-527v120z" />
    <glyph glyph-name="greater" unicode="&#x3e;" horiz-adv-x="739" 
d="M37 656v120h363l-354 354h170l474 -474h-653z" />
    <glyph glyph-name="question" unicode="?" horiz-adv-x="1108" 
d="M173 271l537 537h-1q236 211 237 306q0 105 -52.5 158.5t-138.5 53.5q-85 0 -146 -60.5t-61 -146.5v-11h-110v11q0 130 91.5 221.5t221.5 91.5q129 0 220.5 -91.5t91.5 -221.5q0 -129 -112 -240l-608 -608h-170zM171 69q0 -27 -18.5 -45.5t-45.5 -18.5q-26 0 -45 18.5
t-19 45.5q0 26 19 45t45 19q27 0 45.5 -19t18.5 -45z" />
    <glyph glyph-name="at" unicode="@" horiz-adv-x="1432" 
d="M701 60q-261 2 -446 188q-188 187 -188 452q0 266 187.5 453.5t452.5 187.5q266 0 453.5 -187.5t187.5 -453.5q0 -265 -187 -452l-13 -13l-77 86q3 2 6 5q153 154 153 370q0 217 -153.5 370.5t-370.5 153.5t-371 -153.5t-154 -370.5q0 -216 154 -370q152 -152 366 -154
v-112zM698 960q-111 0 -189 -78.5t-78 -189.5t78 -189t189 -78t189.5 78t78.5 189t-78.5 189.5t-189.5 78.5zM1054 340h-93v115q-6 -6 -10 -11q-104 -104 -251 -104t-250.5 103.5t-103.5 250.5t103.5 250.5t250.5 103.5t251 -103q4 -6 10 -12v115h93v-708z" />
    <glyph glyph-name="A" unicode="A" horiz-adv-x="1673" 
d="M1044 799l-792 -792h-192l1433 1432h136v-1439h-136v799h-449zM1493 934v314l-314 -314h314z" />
    <glyph glyph-name="B" unicode="B" horiz-adv-x="1266" 
d="M530 919q89 0 145.5 56.5t56.5 136.5q0 79 -56.5 135.5t-137.5 56.5h-335v-385h327zM779 128v-1h3q139 0 237 98t98 236q0 139 -98 237t-237 101l-307 -1l1 1l-273 1v-672h576zM779 0h-711v1432l470 -1q129 -7 221 -98q91 -92 91 -221q0 -112 -67 -195q188 0 322 -133
q133 -134 133 -323t-133.5 -322.5t-325.5 -138.5z" />
    <glyph glyph-name="C" unicode="C" horiz-adv-x="1499" 
d="M1480 717q0 -297 -210 -507t-508 -210q-297 0 -507 210t-210 507q0 298 210 508t507 210l-1 -135q-243 0 -415.5 -172t-172.5 -415t172.5 -415t415.5 -172t415 172t172 415z" />
    <glyph glyph-name="D" unicode="D" horiz-adv-x="1138" 
d="M203 1432v3h146q298 0 508 -210t210 -508q0 -297 -210 -507t-508 -210h-258v1432h112zM226 1300v-1174h122q243 0 415 172t172 415t-172 415t-415 172h-122z" />
    <glyph glyph-name="E" unicode="E" horiz-adv-x="919" 
d="M68 0v1432h633v-128h-498v-385h325v-120h-325v-671h656v-128h-791z" />
    <glyph glyph-name="F" unicode="F" horiz-adv-x="776" 
d="M203 799v-799h-135v1432h633v-128h-498v-385h325v-120h-325z" />
    <glyph glyph-name="G" unicode="G" horiz-adv-x="1515" 
d="M806 1300h-3q-244 0 -415 -172q-172 -171 -172 -415l-1 -1q0 -243 172 -415q172 -171 416 -171q243 0 415 172t172 415q0 202 -119 355l-412 -411l-90 90l507 508q17 -15 32 -31q210 -210 210 -506q0 -297 -211 -508q-210 -210 -506 -210q-297 0 -507 210
q-211 211 -211 508q0 296 210 506q211 211 508 211h5v-135z" />
    <glyph glyph-name="H" unicode="H" horiz-adv-x="1198" 
d="M203 799v-799h-135v1432h135v-505h799v505h135v-1432h-135v799h-799z" />
    <glyph glyph-name="I" unicode="I" horiz-adv-x="279" 
d="M203 1432v-1432h-135v1432h135z" />
    <glyph glyph-name="J" unicode="J" horiz-adv-x="1281" 
d="M1240 717q0 -297 -153 -503.5t-452 -213.5q-295 7 -445.5 213.5t-150.5 503.5l128 -4q0 -243 113 -411.5t354 -175.5q244 7 359 175.5t115 411.5l-1 710l135 1z" />
    <glyph glyph-name="K" unicode="K" horiz-adv-x="1382" 
d="M203 887v-887h-135v1432h135v-500l503 503h191l-521 -521l1127 -1128l-202 3z" />
    <glyph glyph-name="L" unicode="L" horiz-adv-x="799" 
d="M746 128v-128h-678v1432h135v-1304h543z" />
    <glyph glyph-name="M" unicode="M" horiz-adv-x="2397" 
d="M1478 708v540l-1241 -1241h-192l1433 1432h136v-596l596 596h136v-1439h-136v1248l-1241 -1241h-192z" />
    <glyph glyph-name="N" unicode="N" horiz-adv-x="3000" 
d="M1420 1240l-1240 -1240h-192l1432 1432l1 1l1 -1h133v-1240l1241 1241h192l-1433 -1433h-135v1240z" />
    <glyph glyph-name="O" unicode="O" horiz-adv-x="1614" 
d="M1308 1225q210 -210 210 -508q0 -297 -210 -507t-508 -210q-297 0 -507 210t-210 507q0 298 210 508t507 210q298 0 508 -210zM799 126q243 0 415 172t172 415t-172 415t-415 172t-415.5 -172t-172.5 -415t172.5 -415t415.5 -172z" />
    <glyph glyph-name="P" unicode="P" horiz-adv-x="776" 
d="M418 930q84 0 143 59.5t59 143.5q0 83 -59 142.5t-143 59.5l-257 1v-406h257zM161 2h-135v1432h392q131 0 224 -92.5t93 -223.5q0 -132 -93 -224q-72 -72 -168 -88h-313v-804z" />
    <glyph glyph-name="Q" unicode="Q" horiz-adv-x="1614" 
d="M806 0h-5q-297 0 -508 211q-210 210 -210 506q0 297 211 508q210 210 507 210q296 0 506 -210q211 -211 211 -508q0 -296 -210 -506q-15 -16 -32 -31l-507 508l90 90l412 -411q119 153 119 355q0 243 -172 415t-415 172q-244 0 -416 -171q-172 -172 -172 -415l1 -1
q0 -244 172 -415q171 -172 415 -172h3v-135z" />
    <glyph glyph-name="R" unicode="R" horiz-adv-x="1447" 
d="M596 913q84 0 143 59.5t59 143.5q0 83 -59 142.5t-143 59.5l-393 1v-1319h-135v1432h528q131 0 224 -92.5t93 -223.5q0 -132 -93 -224q-72 -72 -168 -88l1021 -1012l-194 -5q-1125 1124 -1126 1125l1 1h242z" />
    <glyph glyph-name="S" unicode="S" horiz-adv-x="1017" 
d="M504 912q188 -1 321 -133q133 -134 133 -323t-133.5 -322.5t-322.5 -133.5t-322 134q-133 132 -134 318h109q0 -141 101 -242t244 -101t244 101t101 243q0 143 -101 244t-244 101h-2v1q-127 1 -217 92q-92 92 -92 221q0 130 91.5 221.5t221.5 91.5q127 0 218 -89l-77 -77
q-48 48 -139 48q-97 0 -145 -47.5t-48 -147.5q0 -82 39.5 -136t153.5 -61v-3z" />
    <glyph glyph-name="T" unicode="T" horiz-adv-x="731" 
d="M203 1304v-1304h-135v1432h581v-128h-446z" />
    <glyph glyph-name="U" unicode="U" horiz-adv-x="1289" 
d="M1240 717q0 -297 -153 -503.5t-452 -213.5q-295 7 -445.5 213.5t-150.5 503.5l-4 721h133l-1 -725q0 -243 113 -411.5t354 -175.5q244 7 359 175.5t115 411.5l-1 720l135 1z" />
    <glyph glyph-name="V" unicode="V" horiz-adv-x="1673" 
d="M1629 1432l-1433 -1432h-136v1439h136v-1248l1241 1241h192z" />
    <glyph glyph-name="W" unicode="W" horiz-adv-x="2389" 
d="M913 731v-540l1241 1241h192l-1433 -1432h-136v596l-596 -596h-136v1439h136v-1248l1241 1241h192z" />
    <glyph glyph-name="X" unicode="X" horiz-adv-x="1424" 
d="M875 981v449h135v-314l316 316h187l2 -2l-505 -505v-927h-135v792l-790 -790h-191z" />
    <glyph glyph-name="Y" unicode="Y" horiz-adv-x="1666" 
d="M783 777v654h135v-519l520 520h191l-1432 -1432h-191z" />
    <glyph glyph-name="Z" unicode="Z" horiz-adv-x="1635" 
d="M1296 1300h-640v135h792v-3h172l-1298 -1298h1261v-135h-1432v1h-155z" />
    <glyph glyph-name="bracketleft" unicode="[" horiz-adv-x="580" 
d="M68 -129v1689h445v-128h-310v-1433h315v-128h-450z" />
    <glyph glyph-name="backslash" unicode="\" horiz-adv-x="1628" 
d="M1428 0l-1432 1432h192l1432 -1432h-192z" />
    <glyph glyph-name="bracketright" unicode="]" horiz-adv-x="758" 
d="M68 -129v128h315v1433h-310v128h445v-1689h-450z" />
    <glyph glyph-name="asciicircum" unicode="^" 
d="M504 1262l-342 -342l-95 96l341 341h192l342 -341l-95 -96z" />
    <glyph glyph-name="underscore" unicode="_" horiz-adv-x="1024" 
d="M-8 -128h1033v-135h-1033v135z" />
    <glyph glyph-name="grave" unicode="`" horiz-adv-x="414" 
d="M275 1229q3 -2 5 -4q19 -19 19 -46q0 -26 -19 -45t-45 -19q-27 0 -45 19q-3 2 -5 5l-95 95l90 90z" />
    <glyph glyph-name="a" unicode="a" horiz-adv-x="1010" 
d="M507 798q-143 0 -244 -101t-101 -244q0 -142 101 -243t244 -101t244 101t101 243q0 143 -101 244t-244 101zM965 912v-912h-120v148q-7 -8 -13 -14q-134 -134 -323 -134t-322.5 133.5t-133.5 322.5t133.5 322.5t322.5 133.5t323 -133q6 -7 13 -15v148h120z" />
    <glyph glyph-name="b" unicode="b" horiz-adv-x="995" 
d="M267 697q-101 -101 -101 -244q0 -142 101 -243t244 -101t244 101t101 243q0 143 -101 244t-244 101t-244 -101zM173 0h-120v1206h120v-442q7 8 14 15q133 133 322 133t322.5 -133.5t133.5 -322.5t-133.5 -322.5t-322.5 -133.5t-322 134q-7 6 -14 14v-148z" />
    <glyph glyph-name="c" unicode="c" horiz-adv-x="995" 
d="M965 460v-4q0 -189 -133.5 -322.5t-322.5 -133.5q-188 0 -322 133.5t-134 322.5t134 322.5t322 133.5h3v-114h-5q-142 0 -243 -101t-101 -244q0 -142 101 -243t243 -101q143 0 244 101t101 243v7h113z" />
    <glyph glyph-name="d" unicode="d" horiz-adv-x="1040" 
d="M507 798q-143 0 -244 -101t-101 -244q0 -142 101 -243t244 -101t244 101t101 243q0 143 -101 244t-244 101zM845 148q-7 -8 -13 -14q-134 -134 -323 -134t-322.5 133.5t-133.5 322.5t133.5 322.5t322.5 133.5t323 -133q6 -7 13 -15v442h120v-1206h-120v148z" />
    <glyph glyph-name="e" unicode="e" horiz-adv-x="1032" 
d="M705 736q-86 62 -198 62q-143 0 -244 -101t-101 -244q0 -142 101 -243t244 -101t244 101t101 242h113q-1 -186 -133 -318q-134 -134 -323 -134t-322.5 133.5t-133.5 322.5t133.5 322.5t322.5 133.5t323 -133l39 -48l-363 -362l-85 85z" />
    <glyph glyph-name="f" unicode="f" horiz-adv-x="610" 
d="M53 1118q1 134 92.5 225t220.5 91t221 -91q0 -1 1 -1l-89 -90q-56 54 -134 54q-80 0 -136 -56q-55 -55 -56 -132v-199h203v-120h-203v-799h-120v1118z" />
    <glyph glyph-name="g" unicode="g" horiz-adv-x="1002" 
d="M507 798q-143 0 -244 -101t-101 -244q0 -142 101 -243t244 -101t244 101t101 243q0 143 -101 244t-244 101zM499 -320q143 0 244 101t101 250h1v117q-7 -8 -13 -14q-134 -134 -323 -134t-322.5 133.5t-133.5 322.5t133.5 322.5t322.5 133.5t323 -133q6 -7 13 -15v148h120
v-912q-18 -172 -141 -295q-134 -134 -323 -134q-187 0 -320 132l76 77q100 -100 242 -100z" />
    <glyph glyph-name="h" unicode="h" horiz-adv-x="1032" 
d="M173 0h-120v1206h120v-442q7 8 14 15q133 133 322 133t322.5 -133.5t133.5 -322.5v-456h-120v456q0 148 -95 245q-96 97 -239 97t-244 -101q-95 -95 -95 -228v-16z" />
    <glyph glyph-name="i" unicode="i" horiz-adv-x="256" 
d="M195 919v-912h-135v912h135zM169.5 1179q18.5 -19 18.5 -45q0 -27 -18.5 -45.5t-45.5 -18.5q-26 0 -45 18.5t-19 45.5q0 26 19 45t45 19q27 0 45.5 -19z" />
    <glyph glyph-name="j" unicode="j" horiz-adv-x="249" 
d="M169.5 1179q18.5 -19 18.5 -45q0 -27 -18.5 -45.5t-45.5 -18.5t-45.5 18.5t-18.5 45.5q0 26 18.5 45t45.5 19t45.5 -19zM-277 -320q143 0 244 101t101 250h1v881h120v-912q-18 -172 -141 -295q-134 -134 -323 -134q-187 0 -320 132l75 77q101 -100 243 -100z" />
    <glyph glyph-name="k" unicode="k" horiz-adv-x="965" 
d="M197 535v-535h-120v1266h120v-613l260 259h171l-319 -319l796 -796h-170z" />
    <glyph glyph-name="l" unicode="l" horiz-adv-x="279" 
d="M77 1266h120v-1266h-120v1266z" />
    <glyph glyph-name="m" unicode="m" horiz-adv-x="1816" 
d="M845 0v456q0 148 -95 245q-96 97 -239 97t-244 -101q-95 -95 -95 -228v-16l1 -453h-120v910h120v-146q7 8 14 15q133 133 322 133t323 -133q46 -47 76 -100q31 53 78 100q133 133 322 133t322.5 -133.5t133.5 -322.5v-456h-120v458q-1 141 -98 243t-240 102t-241 -100.5
t-98 -242.5v-460h-122z" />
    <glyph glyph-name="n" unicode="n" horiz-adv-x="1010" 
d="M173 0h-120v910h120v-146q7 8 14 15q133 133 322 133t322.5 -133.5t133.5 -322.5v-456h-120v456q0 148 -95 245q-96 97 -239 97t-244 -101q-95 -95 -95 -228v-16z" />
    <glyph glyph-name="o" unicode="o" horiz-adv-x="1025" 
d="M509 912q189 0 322.5 -133.5t133.5 -322.5t-133.5 -322.5t-322.5 -133.5t-322.5 133.5t-133.5 322.5t133.5 322.5t322.5 133.5zM507 798q-143 0 -244 -101t-101 -244q0 -142 101 -243t244 -101t244 101t101 243q0 143 -101 244t-244 101z" />
    <glyph glyph-name="p" unicode="p" horiz-adv-x="1010" 
d="M504 114q143 0 244 101t101 244q0 142 -101 243t-244 101t-244 -101t-101 -243q0 -143 101 -244t244 -101zM166 764q7 8 14 15q133 133 322 133t322.5 -133.5t133.5 -322.5t-133.5 -322.5t-322.5 -133.5t-322 134q-7 6 -14 14v-442h-120v1206h120v-148z" />
    <glyph glyph-name="q" unicode="q" horiz-adv-x="1024" 
d="M845 459q0 142 -101 243t-244 101t-244 -101t-101 -243q0 -143 101 -244t244 -101t244 101t101 244zM838 -4v152q-7 -8 -13 -14q-134 -134 -323 -134t-322.5 133.5t-133.5 322.5t133.5 322.5t322.5 133.5t323 -133q6 -7 13 -15v148h120v-916q5 -126 97 -218
q101 -101 243 -101l-1 -109q-186 1 -319 134q-124 123 -140 294z" />
    <glyph glyph-name="r" unicode="r" horiz-adv-x="867" 
d="M750 701q-96 97 -239 97t-244 -101q-95 -95 -95 -228v-16l1 -453h-120v910h120v-146q7 8 14 15q133 133 322 133t323 -133q4 -5 9 -10l-77 -83q-7 8 -14 15z" />
    <glyph glyph-name="s" unicode="s" horiz-adv-x="693" 
d="M356 520q-81 0 -138.5 57.5t-57.5 138.5t57.5 138.5t138.5 57.5q78 0 134 -53l-76 -73q-25 20 -57 20q-37 0 -63.5 -26.5t-26.5 -63.5t27 -63q22 -23 53 -27q127 -1 218 -91q92 -92 92 -222t-92 -221.5t-222 -91.5q-129 0 -221 91.5t-92 221.5h101q0 -89 63 -151.5
t152 -62.5q88 0 151 62.5t63 151.5q0 88 -63 151q-53 55 -141 56z" />
    <glyph glyph-name="t" unicode="t" horiz-adv-x="467" 
d="M76 1206h120v-287h203v-120h-203v-799h-120v1206z" />
    <glyph glyph-name="u" unicode="u" horiz-adv-x="1017" 
d="M48 912h120v-460q0 -142 98 -242.5t241 -100.5t240 102t98 243v458h120v-456q0 -189 -133.5 -322.5t-322.5 -133.5t-322.5 133.5t-138.5 318.5v460z" />
    <glyph glyph-name="v" unicode="v" horiz-adv-x="1123" 
d="M1093 915l-909 -915h-124v922h124v-748l734 741h175z" />
    <glyph glyph-name="w" unicode="w" horiz-adv-x="1628" 
d="M471 293l-293 -293h-118v917h118v-752l745 745h166l-500 -500v-245l745 745h166l-911 -910h-118v293z" />
    <glyph glyph-name="x" unicode="x" horiz-adv-x="1130" 
d="M524 -6l-2 396l-390 -390h-167l557 557v356h118v-238l239 236h167l-406 -403l-1 -514h-115z" />
    <glyph glyph-name="y" unicode="y" horiz-adv-x="1168" 
d="M629 912v-316l316 316h171l-1228 -1228h-171l777 777v451h135z" />
    <glyph glyph-name="z" unicode="z" horiz-adv-x="1130" 
d="M824 807h-393v111l677 1l-806 -805h768v-115h-919v1h-135z" />
    <glyph glyph-name="braceleft" unicode="{" horiz-adv-x="430" 
d="M91 766q44 15 79 50q63 61 65 150v7q0 72 -58 133q-55 56 -55 135q0 2 1 5q1 81 59 137q41 40 93 51l-1 -115q-9 -4 -18 -13q-26 -25 -26 -63v-3q0 -30 17 -54q86 -90 86 -214v-6q-2 -130 -95 -220q-17 -17 -36 -31q19 -13 36 -30q93 -90 95 -220v-6q0 -124 -86 -214
q-17 -24 -17 -54v-3q0 -38 26 -63q9 -9 18 -13l1 -115q-52 11 -93 51q-58 56 -59 138q-1 2 -1 4q0 79 55 135q58 61 58 133v7q-2 89 -65 150q-35 35 -79 50v101z" />
    <glyph glyph-name="bar" unicode="|" horiz-adv-x="286" 
d="M203 1681v-1945h-135v1945h135z" />
    <glyph glyph-name="braceright" unicode="}" horiz-adv-x="399" 
d="M333 665q-44 -15 -79 -50q-63 -61 -65 -150v-7q0 -72 58 -133q55 -56 55 -135q0 -2 -1 -4q-1 -82 -59 -138q-41 -40 -93 -51l1 115q9 4 18 13q26 25 26 63v3q0 30 -17 54q-86 90 -86 214v6q2 130 95 220q17 17 36 30q-19 14 -36 31q-93 90 -95 220v6q0 124 86 214
q17 24 17 54v3q0 38 -26 63q-9 9 -18 13l-1 115q52 -11 93 -51q58 -56 59 -137q1 -3 1 -5q0 -79 -55 -135q-58 -61 -58 -133v-7q2 -89 65 -150q35 -35 79 -50v-101z" />
    <glyph glyph-name="asciitilde" unicode="~" horiz-adv-x="1213" 
d="M867 648q71 -30 112 -30q14 0 25 4q64 23 85 67q11 22 11 48q0 22 -9 47q-19 53 -69 76q-27 13 -56 13q-23 0 -47 -9l-7 -3l-24 68l7 3q36 13 71 13q43 0 85 -19q75 -36 104 -116q13 -35 13 -70q0 -42 -19 -84q-36 -76 -116 -105q-31 -12 -65 -12q-50 0 -106 26l-505 237
l-2 5q-72 30 -112 30q-14 0 -24 -4q-64 -23 -85 -67q-11 -23 -11 -48q0 -23 9 -47q19 -53 69 -76q27 -13 56 -13q23 0 47 9l6 2l25 -67l-7 -3q-36 -13 -71 -13q-43 0 -84 20q-76 35 -105 115q-13 35 -13 70q0 42 20 84q35 76 115 105q31 11 64 11q51 0 107 -26l505 -236z
" />
    <glyph glyph-name="exclamdown" unicode="&#xa1;" horiz-adv-x="219" 
d="M54 915q-19 19 -19 45q0 27 19 45.5t45 18.5q27 0 45.5 -18.5t18.5 -45.5q0 -26 -18.5 -45t-45.5 -19q-26 0 -45 19zM36 -403v1160h135v-1160h-135z" />
    <glyph glyph-name="cent" unicode="&#xa2;" horiz-adv-x="1628" 
d="M1283 739v-4q0 -189 -133.5 -322.5t-322.5 -133.5q-188 0 -322 133.5t-134 322.5t134 322.5t322 133.5h3v-114h-5q-142 0 -243 -101t-101 -244q0 -142 101 -243t243 -101q143 0 244 101t101 243v7h113zM0 0l1432 1432h192l-1432 -1432h-192z" />
    <glyph glyph-name="sterling" unicode="&#xa3;" 
d="M167 806q-6 13 -12 25q-41 88 -41 178q0 72 26 144q60 165 218 239q87 41 175 41q73 0 148 -28q117 -42 188 -137l-104 -104q-36 53 -109 91q-61 23 -120 23q-48 0 -94 -15q-102 -35 -160 -142q-12 -61 -12 -108q0 -50 15 -83q24 -54 65 -124h464v-135h-408
q19 -73 19 -146q0 -106 -40 -214q-9 -24 -18 -46q18 3 39 4q31 3 62 3q212 0 381 -140l3 1q20 -8 43 -15q67 -16 129 -16h20l72 -140q-45 -7 -92 -7q-81 0 -165 22q-58 15 -110 39l6 4q-128 107 -291 107q-23 0 -46 -2q-112 -9 -201 -65q-31 -27 -67 -51l-4 -4l-91 122
q131 81 186 232q29 81 29 160q0 77 -27 152h-244v135h168z" />
    <glyph glyph-name="currency" unicode="&#xa4;" 
d="M507 798q-143 0 -244 -101t-101 -244q0 -142 101 -243t244 -101t244 101t101 243q0 143 -101 244t-244 101zM787 818l132 132l85 -85l-132 -132q93 -119 93 -277q0 -155 -90 -272l129 -129l-85 -85l-127 127q-121 -97 -283 -97q-158 0 -277 93l-123 -123l-85 85l123 123
q-94 119 -94 278q0 162 97 283l-126 126l85 85l128 -128q117 90 272 90q159 0 278 -94z" />
    <glyph glyph-name="yen" unicode="&#xa5;" horiz-adv-x="1643" 
d="M783 797v634h135v-519l520 520h191l-635 -635h287v-120h-407l-158 -158h334v-120h-454l-399 -399h-191l399 399h-274v120h394l158 158h-321v120h421z" />
    <glyph glyph-name="brokenbar" unicode="&#xa6;" 
d="M203 595v-859h-135v859h135zM68 1002v679h135v-679h-135z" />
    <glyph glyph-name="section" unicode="&#xa7;" 
d="M497 1003q188 -1 320 -134q133 -132 134 -318v-7q0 -189 -133 -322q-57 -57 -124 -90q11 -9 22 -20q92 -92 92 -221q0 -130 -91.5 -221.5t-221.5 -91.5q-127 0 -218 89l77 77q48 -48 139 -48q97 0 145 47.5t48 147.5q0 82 -39.5 136t-153.5 61q-188 1 -320 134
q-133 132 -134 318v7q0 189 134 323q56 56 123 89q-11 9 -22 20q-92 92 -92 221q0 130 91.5 221.5t221.5 91.5q127 0 218 -89l-77 -77q-48 48 -139 48q-97 0 -145 -47.5t-48 -147.5q0 -82 39.5 -136t153.5 -61zM545 201q110 15 192 97q101 101 101 243q0 143 -101 244
t-244 101h-2v1q-24 0 -46 3q-110 -15 -192 -97q-101 -101 -101 -243q0 -143 101 -244t244 -101h2v-1q24 0 46 -3z" />
    <glyph glyph-name="dieresis" unicode="&#xa8;" horiz-adv-x="603" 
d="M212.5 1215q18.5 -19 18.5 -45q0 -27 -18.5 -45.5t-45.5 -18.5q-26 0 -45 18.5t-19 45.5q0 26 19 45t45 19q27 0 45.5 -19zM484.5 1207q18.5 -19 18.5 -45q0 -27 -18.5 -45.5t-45.5 -18.5q-26 0 -45 18.5t-19 45.5q0 26 19 45t45 19q27 0 45.5 -19z" />
    <glyph glyph-name="copyright" unicode="&#xa9;" horiz-adv-x="1447" 
d="M706 172q217 0 370.5 154t153.5 370q0 217 -153.5 370.5t-370.5 153.5t-371 -153.5t-154 -370.5q0 -216 154 -370t371 -154zM1348 700q0 -265 -187.5 -452.5t-453.5 -187.5q-265 0 -452.5 187.5t-187.5 452.5q0 266 187.5 453.5t452.5 187.5q266 0 453.5 -187.5
t187.5 -453.5zM1086 707v-3q0 -158 -111.5 -269.5t-269.5 -111.5q-157 0 -269 111.5t-112 269.5t112 269.5t269 111.5h3v-95h-5q-118 0 -202.5 -84.5t-84.5 -204.5q0 -118 84.5 -202.5t202.5 -84.5q120 0 204.5 84.5t84.5 202.5v6h94z" />
    <glyph glyph-name="ordfeminine" unicode="&#xaa;" horiz-adv-x="700" 
d="M370.606 1363.78q-94.376 0 -161.033 -60.5977q-66.6572 -60.5967 -66.6572 -146.394q0 -85.1963 66.6572 -145.794t161.033 -60.5977t161.033 60.5977t66.6572 145.794q0 85.7969 -66.6572 146.394q-66.6572 60.5977 -161.033 60.5977zM672.874 1432.18v-547.178
h-79.1963v88.7969q-4.62012 -4.80078 -8.58008 -8.40039q-88.4365 -80.3965 -213.171 -80.3965q-124.735 0 -212.842 80.0967t-88.1064 193.492t88.1064 193.492t212.842 80.0967q124.734 0 213.171 -79.7969q3.95996 -4.19922 8.58008 -9v88.7969h79.1963zM114 750h516.5
v-135h-516.5v135z" />
    <glyph glyph-name="guillemotleft" unicode="&#xab;" horiz-adv-x="1289" 
d="M601 234l-563 563l2 2l-2 2l397 397h170l-399 -399l565 -565h-170zM1081 234l-563 563l2 2l-2 2l397 397h170l-399 -399l565 -565h-170z" />
    <glyph glyph-name="logicalnot" unicode="&#xac;" 
 />
    <glyph glyph-name="registered" unicode="&#xae;" horiz-adv-x="1394" 
d="M499 207q89 -35 193 -35q172 0 304 96l-391 391v1h170q59 0 100.5 42t41.5 101q0 58 -41.5 100t-100.5 42l-276 1v-739zM1069 332q147 152 147 364q0 217 -153.5 370.5t-370.5 153.5t-371 -153.5t-154 -370.5q0 -216 154 -370q39 -39 83 -69v768h371q93 0 158 -65
t65 -157q0 -93 -65 -158q-51 -50 -118 -62zM1334 700q0 -265 -187.5 -452.5t-453.5 -187.5q-265 0 -452.5 187.5t-187.5 452.5q0 266 187.5 453.5t452.5 187.5q266 0 453.5 -187.5t187.5 -453.5z" />
    <glyph glyph-name="macron" unicode="&#xaf;" horiz-adv-x="670" 
d="M0 1237h678v-135h-678v135z" />
    <glyph glyph-name="degree" unicode="&#xb0;" horiz-adv-x="610" 
d="M290 1432q108 0 184 -76t76 -184t-76 -184t-184 -76t-184 76t-76 184t76 184t184 76zM289 1367q-82 0 -139.5 -57.5t-57.5 -139.5q0 -81 57.5 -138.5t139.5 -57.5q81 0 139 57.5t58 138.5q0 82 -58 139.5t-139 57.5z" />
    <glyph glyph-name="plusminus" unicode="&#xb1;" horiz-adv-x="693" 
d="M302 799h-204v120h204v204h120v-204h203v-120h-203v-203h-120v203zM99 361v120h527v-120h-527z" />
    <glyph glyph-name="uni00B2" unicode="&#xb2;" horiz-adv-x="595" 
d="M22 801l360 360h-1q105 94 106 136q0 47 -23.5 71t-61.5 24t-65 -27t-27 -65v-5h-49v5q0 58 40.5 98.5t98.5 40.5q57 0 98 -40.5t41 -98.5t-50 -107l-338 -338h391v-54h-520z" />
    <glyph glyph-name="uni00B3" unicode="&#xb3;" horiz-adv-x="512" 
d="M359 1382h-180l-1 51h304l-229 -229q68 -7 119 -57q58 -59 58 -141q0 -83 -58.5 -141.5t-141.5 -58.5q-82 0 -140 59q-59 58 -59 139h48q0 -62 44 -106t107 -44q62 0 106.5 44t44.5 106q0 63 -44.5 107t-106.5 44l-96 1z" />
    <glyph glyph-name="acute" unicode="&#xb4;" horiz-adv-x="407" 
d="M209 1324l90 -90l-95 -95q-2 -3 -4 -5q-19 -19 -46 -19q-26 0 -45 19t-19 45q0 27 19 46q2 2 5 4z" />
    <glyph glyph-name="mu" unicode="&#xb5;" horiz-adv-x="1180" 
d="M173 912v-456q0 -148 95 -245q96 -97 239 -97t244 101q95 95 95 228v16l-1 453h120v-910h-120v146q-7 -8 -14 -15q-133 -133 -322 -133t-322 134q-9 8 -17 17v-588h-120v1349h123z" />
    <glyph glyph-name="paragraph" unicode="&#xb6;" horiz-adv-x="1024" 
d="M438 806h-151q-96 16 -168 88q-93 92 -93 224q0 131 93 223.5t224 92.5h468v-1432h-135v804h-103v-814h-135v814zM438 930v405h-95q-84 0 -143 -59.5t-59 -142.5q0 -84 59 -143.5t143 -59.5h95zM573 1336v-406h103v406h-103z" />
    <glyph glyph-name="periodcentered" unicode="&#xb7;" horiz-adv-x="203" 
d="M137.5 1034q18.5 -19 18.5 -45q0 -27 -18.5 -45.5t-45.5 -18.5q-26 0 -45 18.5t-19 45.5q0 26 19 45t45 19q27 0 45.5 -19z" />
    <glyph glyph-name="periodcentered" unicode="&#x2219;" horiz-adv-x="203" 
d="M137.5 1034q18.5 -19 18.5 -45q0 -27 -18.5 -45.5t-45.5 -18.5q-26 0 -45 18.5t-19 45.5q0 26 19 45t45 19q27 0 45.5 -19z" />
    <glyph glyph-name="cedilla" unicode="&#xb8;" horiz-adv-x="686" 
d="M141 -156q63 -63 152 -63q90 0 153 63.5t63 152.5v4h71v-3q0 -118 -83.5 -201.5t-202.5 -83.5q-117 0 -201 83l-3 3l48 48z" />
    <glyph glyph-name="uni00B9" unicode="&#xb9;" horiz-adv-x="407" 
d="M272 1428v4h60v-632h-60v544l-141 -141h-84z" />
    <glyph glyph-name="ordmasculine" unicode="&#xba;" horiz-adv-x="715" 
d="M371.927 1432.18q124.734 0 212.841 -80.0967t88.1064 -193.492t-88.1064 -193.492t-212.841 -80.0967q-124.735 0 -212.842 80.0967t-88.1064 193.492t88.1064 193.492t212.842 80.0967zM370.606 1363.78q-94.376 0 -161.033 -60.5977
q-66.6572 -60.5967 -66.6572 -146.394q0 -85.1963 66.6572 -145.794t161.033 -60.5977t161.033 60.5977t66.6572 145.794q0 85.7969 -66.6572 146.394q-66.6572 60.5977 -161.033 60.5977zM114 750h516.5v-135h-516.5v135z" />
    <glyph glyph-name="guillemotright" unicode="&#xbb;" horiz-adv-x="1289" 
d="M38 234l565 565l-399 399h170l397 -397l-2 -2l2 -2l-563 -563h-170zM487 234l565 565l-399 399h170l397 -397l-2 -2l2 -2l-563 -563h-170z" />
    <glyph glyph-name="onequarter" unicode="&#xbc;" horiz-adv-x="1708" 
d="M1302 709h68v-720h-68v400h-225l-96 -1zM1302 456v157l-157 -157h157zM272 1428v4h60v-632h-60v544l-141 -141h-84zM-4 0l1432 1432h192l-1432 -1432h-192z" />
    <glyph glyph-name="onehalf" unicode="&#xbd;" horiz-adv-x="1590" 
d="M272 1428v4h60v-632h-60v544l-141 -141h-84zM-124 0l1432 1432h192l-1432 -1432h-192zM921 0l360 360h-1q105 94 106 136q0 47 -23.5 71t-61.5 24t-65 -27t-27 -65v-5h-49v5q0 58 40.5 98.5t98.5 40.5q57 0 98 -40.5t41 -98.5t-50 -107l-338 -338h391v-54h-520z" />
    <glyph glyph-name="threequarters" unicode="&#xbe;" horiz-adv-x="1708" 
d="M1302 709h68v-720h-68v400h-225l-96 -1zM1302 456v157l-157 -157h157zM-4 0l1432 1432h192l-1432 -1432h-192zM427 1382h-180l-1 51h304l-229 -229q68 -7 119 -57q58 -59 58 -141q0 -83 -58.5 -141.5t-141.5 -58.5q-82 0 -140 59q-59 58 -59 139h48q0 -62 44 -106
t107 -44q62 0 106.5 44t44.5 106q0 63 -44.5 107t-106.5 44l-96 1z" />
    <glyph glyph-name="questiondown" unicode="&#xbf;" horiz-adv-x="1108" 
d="M933 771l-537 -537h1q-236 -211 -237 -306q0 -105 52.5 -158.5t138.5 -53.5q85 0 146 60.5t61 146.5v11h110v-11q0 -130 -91.5 -221.5t-221.5 -91.5q-129 0 -220.5 91.5t-91.5 221.5q0 129 112 240l608 608h170zM935 973q0 27 18.5 45.5t45.5 18.5q26 0 45 -18.5
t19 -45.5q0 -26 -19 -45t-45 -19q-27 0 -45.5 19t-18.5 45z" />
    <glyph glyph-name="Agrave" unicode="&#xc0;" horiz-adv-x="1673" 
d="M1044 799l-792 -792h-192l1433 1432h136v-1439h-136v799h-449zM1493 934v314l-314 -314h314zM1613 1630q3 -2 5 -4q19 -19 19 -46q0 -26 -19 -45t-45 -19q-27 0 -45 19q-3 2 -5 5l-95 95l90 90z" />
    <glyph glyph-name="Aacute" unicode="&#xc1;" horiz-adv-x="1673" 
d="M1044 799l-792 -792h-192l1433 1432h136v-1439h-136v799h-449zM1493 934v314l-314 -314h314zM1549 1747l90 -90l-95 -95q-2 -3 -4 -5q-19 -19 -46 -19q-26 0 -45 19t-19 45q0 27 19 46q2 2 5 4z" />
    <glyph glyph-name="Acircumflex" unicode="&#xc2;" horiz-adv-x="1733" 
d="M1044 799l-792 -792h-192l1433 1432h136v-1439h-136v799h-449zM1493 934v314l-314 -314h314zM1561 1697l-192 -192l-95 96l191 191h192l191 -191l-95 -96z" />
    <glyph glyph-name="Atilde" unicode="&#xc3;" horiz-adv-x="1673" 
d="M1044 799l-792 -792h-192l1433 1432h136v-1439h-136v799h-449zM1493 934v314l-314 -314h314zM1715 1611q50 -21 78 -21q10 0 17 3q45 16 60 46q7 16 7 33q0 16 -6 33q-14 37 -48 53q-20 9 -39 9q-16 0 -33 -6l-4 -2l-17 47l4 2q25 9 50 9q30 0 59 -13q52 -25 72 -81
q9 -24 9 -48q0 -30 -13 -58q-25 -53 -81 -73q-22 -8 -45 -8q-35 0 -73 18l-350 164l-2 3q-49 21 -77 21q-10 0 -17 -3q-45 -16 -59 -46q-8 -16 -8 -33q0 -16 6 -33q14 -37 49 -53q19 -9 38 -9q16 0 33 6l4 2l17 -47l-4 -2q-25 -9 -50 -9q-30 0 -58 14q-53 24 -73 80
q-9 24 -9 48q0 30 14 59q24 52 80 72q22 8 45 8q35 0 73 -18l350 -164z" />
    <glyph glyph-name="Adieresis" unicode="&#xc4;" horiz-adv-x="1673" 
d="M1044 799l-792 -792h-192l1433 1432h136v-1439h-136v799h-449zM1493 934v314l-314 -314h314zM1462.5 1703q18.5 -19 18.5 -45q0 -27 -18.5 -45.5t-45.5 -18.5q-26 0 -45 18.5t-19 45.5q0 26 19 45t45 19q27 0 45.5 -19zM1734.5 1695q18.5 -19 18.5 -45q0 -27 -18.5 -45.5
t-45.5 -18.5q-26 0 -45 18.5t-19 45.5q0 26 19 45t45 19q27 0 45.5 -19z" />
    <glyph glyph-name="Aring" unicode="&#xc5;" horiz-adv-x="1673" 
d="M1493 934v314l-314 -314h314zM1565 1673q-45 0 -77 -31.5t-32 -76.5t32 -77t77 -32t76.5 32t31.5 77t-31.5 76.5t-76.5 31.5zM1629 1436v-1436h-136v799h-449l-792 -792h-192l1433 1432h4q-18 10 -33 25q-42 42 -42 102q0 59 42 101t102 42q59 0 101 -42t42 -101
q0 -60 -42 -102q-18 -18 -38 -28z" />
    <glyph glyph-name="AE" unicode="&#xc6;" horiz-adv-x="2085" 
d="M1487 1242l-308 -308h308v308zM1487 799h-443l-792 -792h-192l1427 1426v6h633v-128h-491v-385h318v-120h-318v-671h649v-128h-649v-7h-136v7h-6v792z" />
    <glyph glyph-name="Ccedilla" unicode="&#xc7;" horiz-adv-x="1499" 
d="M733 1q-278 9 -478 209q-210 210 -210 507q0 298 210 508t507 210l-1 -135q-243 0 -415.5 -172t-172.5 -415t172.5 -415t415.5 -172t415 172t172 415l132 4q0 -297 -210 -507q-195 -195 -466 -209q-1 -115 -84 -197q-84 -84 -202 -84t-202 83q-1 2 -3 3l49 48q1 -1 2 -3
q64 -63 153 -63t153 64q62 62 63 149z" />
    <glyph glyph-name="Egrave" unicode="&#xc8;" horiz-adv-x="919" 
d="M68 0v1432h633v-128h-498v-385h325v-120h-325v-671h656v-128h-791zM509 1637q3 -2 5 -4q19 -19 19 -46q0 -26 -19 -45t-45 -19q-27 0 -45 19q-3 2 -5 5l-95 95l90 90z" />
    <glyph glyph-name="Eacute" unicode="&#xc9;" horiz-adv-x="919" 
d="M68 0v1432h633v-128h-498v-385h325v-120h-325v-671h656v-128h-791zM513 1732l90 -90l-95 -95q-2 -3 -4 -5q-19 -19 -46 -19q-26 0 -45 19t-19 45q0 27 19 46q2 2 5 4z" />
    <glyph glyph-name="Ecircumflex" unicode="&#xca;" horiz-adv-x="919" 
d="M68 0v1432h633v-128h-498v-385h325v-120h-325v-671h656v-128h-791zM464 1720l-192 -192l-95 96l191 191h192l191 -191l-95 -96z" />
    <glyph glyph-name="Edieresis" unicode="&#xcb;" horiz-adv-x="919" 
d="M68 0v1432h633v-128h-498v-385h325v-120h-325v-671h656v-128h-791zM373.5 1733q18.5 -19 18.5 -45q0 -27 -18.5 -45.5t-45.5 -18.5q-26 0 -45 18.5t-19 45.5q0 26 19 45t45 19q27 0 45.5 -19zM645.5 1725q18.5 -19 18.5 -45q0 -27 -18.5 -45.5t-45.5 -18.5
q-26 0 -45 18.5t-19 45.5q0 26 19 45t45 19q27 0 45.5 -19z" />
    <glyph glyph-name="Igrave" unicode="&#xcc;" horiz-adv-x="279" 
d="M203 1432v-1432h-135v1432h135zM181 1637q3 -2 5 -4q19 -19 19 -46q0 -26 -19 -45t-45 -19q-27 0 -45 19q-3 2 -5 5l-95 95l90 90z" />
    <glyph glyph-name="Iacute" unicode="&#xcd;" horiz-adv-x="279" 
d="M203 1432v-1432h-135v1432h135zM185 1732l90 -90l-95 -95q-2 -3 -4 -5q-19 -19 -46 -19q-26 0 -45 19t-19 45q0 27 19 46q2 2 5 4z" />
    <glyph glyph-name="Icircumflex" unicode="&#xce;" horiz-adv-x="279" 
d="M204 1432v-1432h-135v1432h135zM136 1720l-192 -192l-95 96l191 191h192l191 -191l-95 -96z" />
    <glyph glyph-name="Idieresis" unicode="&#xcf;" horiz-adv-x="279" 
d="M204 1432v-1432h-135v1432h135zM45.5 1733q18.5 -19 18.5 -45q0 -27 -18.5 -45.5t-45.5 -18.5q-26 0 -45 18.5t-19 45.5q0 26 19 45t45 19q27 0 45.5 -19zM317.5 1725q18.5 -19 18.5 -45q0 -27 -18.5 -45.5t-45.5 -18.5q-26 0 -45 18.5t-19 45.5q0 26 19 45t45 19
q27 0 45.5 -19z" />
    <glyph glyph-name="Eth" unicode="&#xd0;" horiz-adv-x="1372" 
d="M460 778v-652h122q243 0 415 172t172 415t-172 415t-415 172h-122v-387h336v-135h-336zM325 913v519h112v3h146q298 0 508 -210t210 -508q0 -297 -210 -507t-508 -210h-258v778h-253v135h253z" />
    <glyph glyph-name="Ntilde" unicode="&#xd1;" horiz-adv-x="3000" 
d="M1420 1240l-1240 -1240h-192l1432 1432l1 1l1 -1h133v-1240l1241 1241h192l-1433 -1433h-135v1240zM2346 1579q50 -21 78 -21q10 0 17 3q45 16 60 46q7 16 7 33q0 16 -6 33q-14 37 -48 53q-20 9 -39 9q-16 0 -33 -6l-4 -2l-17 47l4 2q25 9 50 9q30 0 59 -13
q52 -25 72 -81q9 -24 9 -48q0 -30 -13 -58q-25 -53 -81 -73q-22 -8 -45 -8q-35 0 -73 18l-350 164l-2 3q-49 21 -77 21q-10 0 -17 -3q-45 -16 -59 -46q-8 -16 -8 -33q0 -16 6 -33q14 -37 49 -53q19 -9 38 -9q16 0 33 6l4 2l17 -47l-4 -2q-25 -9 -50 -9q-30 0 -58 14
q-53 24 -73 80q-9 24 -9 48q0 30 14 59q24 52 80 72q22 8 45 8q35 0 73 -18l350 -164z" />
    <glyph glyph-name="Ograve" unicode="&#xd2;" horiz-adv-x="1614" 
d="M1308 1225q210 -210 210 -508q0 -297 -210 -507t-508 -210q-297 0 -507 210t-210 507q0 298 210 508t507 210q298 0 508 -210zM799 126q243 0 415 172t172 415t-172 415t-415 172t-415.5 -172t-172.5 -415t172.5 -415t415.5 -172zM846 1637q3 -2 5 -4q19 -19 19 -46
q0 -26 -19 -45t-45 -19q-27 0 -45 19q-3 2 -5 5l-95 95l90 90z" />
    <glyph glyph-name="Oacute" unicode="&#xd3;" horiz-adv-x="1614" 
d="M1308 1225q210 -210 210 -508q0 -297 -210 -507t-508 -210q-297 0 -507 210t-210 507q0 298 210 508t507 210q298 0 508 -210zM799 126q243 0 415 172t172 415t-172 415t-415 172t-415.5 -172t-172.5 -415t172.5 -415t415.5 -172zM850 1732l90 -90l-95 -95q-2 -3 -4 -5
q-19 -19 -46 -19q-26 0 -45 19t-19 45q0 27 19 46q2 2 5 4z" />
    <glyph glyph-name="Ocircumflex" unicode="&#xd4;" horiz-adv-x="1614" 
d="M1308 1225q210 -210 210 -508q0 -297 -210 -507t-508 -210q-297 0 -507 210t-210 507q0 298 210 508t507 210q298 0 508 -210zM799 126q243 0 415 172t172 415t-172 415t-415 172t-415.5 -172t-172.5 -415t172.5 -415t415.5 -172zM801 1720l-192 -192l-95 96l191 191h192
l191 -191l-95 -96z" />
    <glyph glyph-name="Otilde" unicode="&#xd5;" horiz-adv-x="1614" 
d="M1308 1225q210 -210 210 -508q0 -297 -210 -507t-508 -210q-297 0 -507 210t-210 507q0 298 210 508t507 210q298 0 508 -210zM799 126q243 0 415 172t172 415t-172 415t-415 172t-415.5 -172t-172.5 -415t172.5 -415t415.5 -172zM978 1626q50 -21 78 -21q10 0 17 3
q45 16 60 46q7 16 7 33q0 16 -6 33q-14 37 -48 53q-20 9 -39 9q-16 0 -33 -6l-4 -2l-17 47l4 2q25 9 50 9q30 0 59 -13q52 -25 72 -81q9 -24 9 -48q0 -30 -13 -58q-25 -53 -81 -73q-22 -8 -45 -8q-35 0 -73 18l-350 164l-2 3q-49 21 -77 21q-10 0 -17 -3q-45 -16 -59 -46
q-8 -16 -8 -33q0 -16 6 -33q14 -37 49 -53q19 -9 38 -9q16 0 33 6l4 2l17 -47l-4 -2q-25 -9 -50 -9q-30 0 -58 14q-53 24 -73 80q-9 24 -9 48q0 30 14 59q24 52 80 72q22 8 45 8q35 0 73 -18l350 -164z" />
    <glyph glyph-name="Odieresis" unicode="&#xd6;" horiz-adv-x="1614" 
d="M1308 1225q210 -210 210 -508q0 -297 -210 -507t-508 -210q-297 0 -507 210t-210 507q0 298 210 508t507 210q298 0 508 -210zM799 126q243 0 415 172t172 415t-172 415t-415 172t-415.5 -172t-172.5 -415t172.5 -415t415.5 -172zM710.5 1733q18.5 -19 18.5 -45
q0 -27 -18.5 -45.5t-45.5 -18.5q-26 0 -45 18.5t-19 45.5q0 26 19 45t45 19q27 0 45.5 -19zM982.5 1725q18.5 -19 18.5 -45q0 -27 -18.5 -45.5t-45.5 -18.5q-26 0 -45 18.5t-19 45.5q0 26 19 45t45 19q27 0 45.5 -19z" />
    <glyph glyph-name="multiply" unicode="&#xd7;" horiz-adv-x="685" 
d="M6 595l-8 8l281 281v239h120v-119l119 119h154l8 -8l-281 -281v-238h-120v118l-119 -119h-154z" />
    <glyph glyph-name="Oslash" unicode="&#xd8;" horiz-adv-x="1614" 
d="M338 349l825 825q-155 126 -363 126q-243 0 -415.5 -172t-172.5 -415q0 -208 126 -364zM345 164l-164 -164h-192l259 259q-164 195 -164 458q0 298 210 508t507 210q264 0 459 -164l161 161h192l-258 -258q164 -194 164 -457q0 -297 -210 -507t-508 -210q-262 0 -456 164
zM1260 1079l-826 -826q157 -127 366 -127q243 0 415 172t172 415q0 209 -127 366z" />
    <glyph glyph-name="Ugrave" unicode="&#xd9;" horiz-adv-x="1289" 
d="M1240 717q0 -297 -153 -503.5t-452 -213.5q-295 7 -445.5 213.5t-150.5 503.5l-4 721h133l-1 -725q0 -243 113 -411.5t354 -175.5q244 7 359 175.5t115 411.5l-1 720l135 1zM684 1637q3 -2 5 -4q19 -19 19 -46q0 -26 -19 -45t-45 -19q-27 0 -45 19q-3 2 -5 5l-95 95
l90 90z" />
    <glyph glyph-name="Uacute" unicode="&#xda;" horiz-adv-x="1289" 
d="M1240 717q0 -297 -153 -503.5t-452 -213.5q-295 7 -445.5 213.5t-150.5 503.5l-4 721h133l-1 -725q0 -243 113 -411.5t354 -175.5q244 7 359 175.5t115 411.5l-1 720l135 1zM688 1732l90 -90l-95 -95q-2 -3 -4 -5q-19 -19 -46 -19q-26 0 -45 19t-19 45q0 27 19 46
q2 2 5 4z" />
    <glyph glyph-name="Ucircumflex" unicode="&#xdb;" horiz-adv-x="1289" 
d="M1240 717q0 -297 -153 -503.5t-452 -213.5q-295 7 -445.5 213.5t-150.5 503.5l-4 721h133l-1 -725q0 -243 113 -411.5t354 -175.5q244 7 359 175.5t115 411.5l-1 720l135 1zM639 1720l-192 -192l-95 96l191 191h192l191 -191l-95 -96z" />
    <glyph glyph-name="Udieresis" unicode="&#xdc;" horiz-adv-x="1289" 
d="M1240 717q0 -297 -153 -503.5t-452 -213.5q-295 7 -445.5 213.5t-150.5 503.5l-4 721h133l-1 -725q0 -243 113 -411.5t354 -175.5q244 7 359 175.5t115 411.5l-1 720l135 1zM548.5 1733q18.5 -19 18.5 -45q0 -27 -18.5 -45.5t-45.5 -18.5q-26 0 -45 18.5t-19 45.5
q0 26 19 45t45 19q27 0 45.5 -19zM820.5 1725q18.5 -19 18.5 -45q0 -27 -18.5 -45.5t-45.5 -18.5q-26 0 -45 18.5t-19 45.5q0 26 19 45t45 19q27 0 45.5 -19z" />
    <glyph glyph-name="Yacute" unicode="&#xdd;" horiz-adv-x="1666" 
d="M783 777v654h135v-519l520 520h191l-1432 -1432h-191zM1236 1702l90 -90l-95 -95q-2 -3 -4 -5q-19 -19 -46 -19q-26 0 -45 19t-19 45q0 27 19 46q2 2 5 4z" />
    <glyph glyph-name="Thorn" unicode="&#xde;" horiz-adv-x="776" 
d="M418 730q84 0 143 59.5t59 143.5q0 83 -59 142.5t-143 59.5l-257 1v-406h257zM158 1234h260q131 0 224 -92.5t93 -223.5q0 -132 -93 -224q-72 -72 -168 -88h-313v-804h-135v198h-3v1432h135v-198z" />
    <glyph glyph-name="germandbls" unicode="&#xdf;" horiz-adv-x="1251" 
 />
    <glyph glyph-name="agrave" unicode="&#xe0;" horiz-adv-x="1010" 
d="M507 798q-143 0 -244 -101t-101 -244q0 -142 101 -243t244 -101t244 101t101 243q0 143 -101 244t-244 101zM965 912v-912h-120v148q-7 -8 -13 -14q-134 -134 -323 -134t-322.5 133.5t-133.5 322.5t133.5 322.5t322.5 133.5t323 -133q6 -7 13 -15v148h120zM555 1229
q3 -2 5 -4q19 -19 19 -46q0 -26 -19 -45t-45 -19q-27 0 -45 19q-3 2 -5 5l-95 95l90 90z" />
    <glyph glyph-name="aacute" unicode="&#xe1;" horiz-adv-x="1010" 
d="M507 798q-143 0 -244 -101t-101 -244q0 -142 101 -243t244 -101t244 101t101 243q0 143 -101 244t-244 101zM965 912v-912h-120v148q-7 -8 -13 -14q-134 -134 -323 -134t-322.5 133.5t-133.5 322.5t133.5 322.5t322.5 133.5t323 -133q6 -7 13 -15v148h120zM558 1324
l90 -90l-95 -95q-2 -3 -4 -5q-19 -19 -46 -19q-26 0 -45 19t-19 45q0 27 19 46q2 2 5 4z" />
    <glyph glyph-name="acircumflex" unicode="&#xe2;" horiz-adv-x="1010" 
d="M507 798q-143 0 -244 -101t-101 -244q0 -142 101 -243t244 -101t244 101t101 243q0 143 -101 244t-244 101zM965 912v-912h-120v148q-7 -8 -13 -14q-134 -134 -323 -134t-322.5 133.5t-133.5 322.5t133.5 322.5t322.5 133.5t323 -133q6 -7 13 -15v148h120zM509 1202
l-192 -192l-95 96l191 191h192l191 -191l-95 -96z" />
    <glyph glyph-name="atilde" unicode="&#xe3;" horiz-adv-x="1010" 
d="M507 798q-143 0 -244 -101t-101 -244q0 -142 101 -243t244 -101t244 101t101 243q0 143 -101 244t-244 101zM965 912v-912h-120v148q-7 -8 -13 -14q-134 -134 -323 -134t-322.5 133.5t-133.5 322.5t133.5 322.5t322.5 133.5t323 -133q6 -7 13 -15v148h120zM686 1108
q50 -21 78 -21q10 0 17 3q45 16 60 46q7 16 7 33q0 16 -6 33q-14 37 -48 53q-20 9 -39 9q-16 0 -33 -6l-4 -2l-17 47l4 2q25 9 50 9q30 0 59 -13q52 -25 72 -81q9 -24 9 -48q0 -30 -13 -58q-25 -53 -81 -73q-22 -8 -45 -8q-35 0 -73 18l-350 164l-2 3q-49 21 -77 21
q-10 0 -17 -3q-45 -16 -59 -46q-8 -16 -8 -33q0 -16 6 -33q14 -37 49 -53q19 -9 38 -9q16 0 33 6l4 2l17 -47l-4 -2q-25 -9 -50 -9q-30 0 -58 14q-53 24 -73 80q-9 24 -9 48q0 30 14 59q24 52 80 72q22 8 45 8q35 0 73 -18l350 -164z" />
    <glyph glyph-name="adieresis" unicode="&#xe4;" horiz-adv-x="1010" 
d="M507 798q-143 0 -244 -101t-101 -244q0 -142 101 -243t244 -101t244 101t101 243q0 143 -101 244t-244 101zM965 912v-912h-120v148q-7 -8 -13 -14q-134 -134 -323 -134t-322.5 133.5t-133.5 322.5t133.5 322.5t322.5 133.5t323 -133q6 -7 13 -15v148h120zM418.5 1215
q18.5 -19 18.5 -45q0 -27 -18.5 -45.5t-45.5 -18.5q-26 0 -45 18.5t-19 45.5q0 26 19 45t45 19q27 0 45.5 -19zM690.5 1207q18.5 -19 18.5 -45q0 -27 -18.5 -45.5t-45.5 -18.5q-26 0 -45 18.5t-19 45.5q0 26 19 45t45 19q27 0 45.5 -19z" />
    <glyph glyph-name="aring" unicode="&#xe5;" horiz-adv-x="1010" 
d="M507 798q-143 0 -244 -101t-101 -244q0 -142 101 -243t244 -101t244 101t101 243q0 143 -101 244t-244 101zM965 912v-912h-120v148q-7 -8 -13 -14q-134 -134 -323 -134t-322.5 133.5t-133.5 322.5t133.5 322.5t322.5 133.5t323 -133q6 -7 13 -15v148h120zM510 1350
q59 0 101 -42t42 -101q0 -60 -42 -102t-101 -42q-60 0 -102 42t-42 102q0 59 42 101t102 42zM509 1314q-45 0 -77 -31.5t-32 -76.5t32 -77t77 -32t76.5 32t31.5 77t-31.5 76.5t-76.5 31.5z" />
    <glyph glyph-name="ae" unicode="&#xe6;" horiz-adv-x="1824" 
d="M507 798q-143 0 -244 -101t-101 -244q0 -142 101 -243t244 -101t244 101t101 243q0 143 -101 244t-244 101zM965 161v-161h-120v148q-7 -8 -13 -14q-134 -134 -323 -134t-322.5 133.5t-133.5 322.5t133.5 322.5t322.5 133.5t323 -133q6 -7 13 -15v148h120v-161
q12 14 26 28q133 133 322 133t323 -133l39 -48l-363 -362l-85 85l282 282q-86 62 -198 62q-143 0 -244 -101t-101 -244q0 -142 101 -243t244 -101t244 101t101 242h113q-1 -186 -133 -318q-134 -134 -323 -134t-322 134q-14 13 -26 27z" />
    <glyph glyph-name="ccedilla" unicode="&#xe7;" horiz-adv-x="995" 
d="M487 0q-174 8 -300 134q-134 133 -134 322t134 322.5t322 133.5h3v-114h-5q-142 0 -243 -101t-101 -244q0 -142 101 -243t243 -101q143 0 244 101t101 243v7h113v-4q0 -189 -133 -322q-122 -122 -291 -133h17v-3q0 -118 -83.5 -201.5t-202.5 -83.5q-117 0 -201 83l-3 3
l48 48l3 -3q63 -63 152 -63q90 0 153 63.5t63 152.5v3z" />
    <glyph glyph-name="egrave" unicode="&#xe8;" horiz-adv-x="1032" 
d="M705 736q-86 62 -198 62q-143 0 -244 -101t-101 -244q0 -142 101 -243t244 -101t244 101t101 242h113q-1 -186 -133 -318q-134 -134 -323 -134t-322.5 133.5t-133.5 322.5t133.5 322.5t322.5 133.5t323 -133l39 -48l-363 -362l-85 85zM555 1229q3 -2 5 -4q19 -19 19 -46
q0 -26 -19 -45t-45 -19q-27 0 -45 19q-3 2 -5 5l-95 95l90 90z" />
    <glyph glyph-name="eacute" unicode="&#xe9;" horiz-adv-x="1032" 
d="M705 736q-86 62 -198 62q-143 0 -244 -101t-101 -244q0 -142 101 -243t244 -101t244 101t101 242h113q-1 -186 -133 -318q-134 -134 -323 -134t-322.5 133.5t-133.5 322.5t133.5 322.5t322.5 133.5t323 -133l39 -48l-363 -362l-85 85zM558 1324l90 -90l-95 -95
q-2 -3 -4 -5q-19 -19 -46 -19q-26 0 -45 19t-19 45q0 27 19 46q2 2 5 4z" />
    <glyph glyph-name="ecircumflex" unicode="&#xea;" horiz-adv-x="1032" 
d="M705 736q-86 62 -198 62q-143 0 -244 -101t-101 -244q0 -142 101 -243t244 -101t244 101t101 242h113q-1 -186 -133 -318q-134 -134 -323 -134t-322.5 133.5t-133.5 322.5t133.5 322.5t322.5 133.5t323 -133l39 -48l-363 -362l-85 85zM509 1202l-192 -192l-95 96l191 191
h192l191 -191l-95 -96z" />
    <glyph glyph-name="edieresis" unicode="&#xeb;" horiz-adv-x="1032" 
d="M705 736q-86 62 -198 62q-143 0 -244 -101t-101 -244q0 -142 101 -243t244 -101t244 101t101 242h113q-1 -186 -133 -318q-134 -134 -323 -134t-322.5 133.5t-133.5 322.5t133.5 322.5t322.5 133.5t323 -133l39 -48l-363 -362l-85 85zM418.5 1215q18.5 -19 18.5 -45
q0 -27 -18.5 -45.5t-45.5 -18.5q-26 0 -45 18.5t-19 45.5q0 26 19 45t45 19q27 0 45.5 -19zM690.5 1207q18.5 -19 18.5 -45q0 -27 -18.5 -45.5t-45.5 -18.5q-26 0 -45 18.5t-19 45.5q0 26 19 45t45 19q27 0 45.5 -19z" />
    <glyph glyph-name="igrave" unicode="&#xec;" horiz-adv-x="271" 
d="M195 919v-912h-135v912h135zM173 1229q3 -2 5 -4q19 -19 19 -46q0 -26 -19 -45t-45 -19q-27 0 -45 19q-3 2 -5 5l-95 95l90 90z" />
    <glyph glyph-name="iacute" unicode="&#xed;" horiz-adv-x="271" 
d="M195 919v-912h-135v912h135zM177 1324l90 -90l-95 -95q-2 -3 -4 -5q-19 -19 -46 -19q-26 0 -45 19t-19 45q0 27 19 46q2 2 5 4z" />
    <glyph glyph-name="icircumflex" unicode="&#xee;" horiz-adv-x="271" 
d="M196 919v-912h-135v912h135zM128 1202l-192 -192l-95 96l191 191h192l191 -191l-95 -96z" />
    <glyph glyph-name="idieresis" unicode="&#xef;" horiz-adv-x="271" 
d="M196 919v-912h-135v912h135zM37.5 1215q18.5 -19 18.5 -45q0 -27 -18.5 -45.5t-45.5 -18.5q-26 0 -45 18.5t-19 45.5q0 26 19 45t45 19q27 0 45.5 -19zM309.5 1207q18.5 -19 18.5 -45q0 -27 -18.5 -45.5t-45.5 -18.5q-26 0 -45 18.5t-19 45.5q0 26 19 45t45 19
q27 0 45.5 -19z" />
    <glyph glyph-name="eth" unicode="&#xf0;" horiz-adv-x="1070" 
d="M746 739q-85 59 -194 59q-143 0 -244 -101t-101 -244q0 -142 101 -243t244 -101t244 101t101 243q0 143 -101 244zM279 1206l-226 226h170l225 -226h396v-135h-262l293 -295q131 -133 131 -320q0 -189 -133.5 -322.5t-322.5 -133.5t-322.5 133.5t-133.5 322.5
t133.5 322.5t322.5 133.5q12 0 24 -1l-160 160h-385v135h250z" />
    <glyph glyph-name="ntilde" unicode="&#xf1;" horiz-adv-x="1010" 
d="M173 0h-120v910h120v-146q7 8 14 15q133 133 322 133t322.5 -133.5t133.5 -322.5v-456h-120v456q0 148 -95 245q-96 97 -239 97t-244 -101q-95 -95 -95 -228v-16zM686 1108q50 -21 78 -21q10 0 17 3q45 16 60 46q7 16 7 33q0 16 -6 33q-14 37 -48 53q-20 9 -39 9
q-16 0 -33 -6l-4 -2l-17 47l4 2q25 9 50 9q30 0 59 -13q52 -25 72 -81q9 -24 9 -48q0 -30 -13 -58q-25 -53 -81 -73q-22 -8 -45 -8q-35 0 -73 18l-350 164l-2 3q-49 21 -77 21q-10 0 -17 -3q-45 -16 -59 -46q-8 -16 -8 -33q0 -16 6 -33q14 -37 49 -53q19 -9 38 -9q16 0 33 6
l4 2l17 -47l-4 -2q-25 -9 -50 -9q-30 0 -58 14q-53 24 -73 80q-9 24 -9 48q0 30 14 59q24 52 80 72q22 8 45 8q35 0 73 -18l350 -164z" />
    <glyph glyph-name="ograve" unicode="&#xf2;" horiz-adv-x="1025" 
d="M509 912q189 0 322.5 -133.5t133.5 -322.5t-133.5 -322.5t-322.5 -133.5t-322.5 133.5t-133.5 322.5t133.5 322.5t322.5 133.5zM507 798q-143 0 -244 -101t-101 -244q0 -142 101 -243t244 -101t244 101t101 243q0 143 -101 244t-244 101zM555 1229q3 -2 5 -4
q19 -19 19 -46q0 -26 -19 -45t-45 -19q-27 0 -45 19q-3 2 -5 5l-95 95l90 90z" />
    <glyph glyph-name="oacute" unicode="&#xf3;" horiz-adv-x="1025" 
d="M509 912q189 0 322.5 -133.5t133.5 -322.5t-133.5 -322.5t-322.5 -133.5t-322.5 133.5t-133.5 322.5t133.5 322.5t322.5 133.5zM507 798q-143 0 -244 -101t-101 -244q0 -142 101 -243t244 -101t244 101t101 243q0 143 -101 244t-244 101zM558 1324l90 -90l-95 -95
q-2 -3 -4 -5q-19 -19 -46 -19q-26 0 -45 19t-19 45q0 27 19 46q2 2 5 4z" />
    <glyph glyph-name="ocircumflex" unicode="&#xf4;" horiz-adv-x="1025" 
d="M509 912q189 0 322.5 -133.5t133.5 -322.5t-133.5 -322.5t-322.5 -133.5t-322.5 133.5t-133.5 322.5t133.5 322.5t322.5 133.5zM507 798q-143 0 -244 -101t-101 -244q0 -142 101 -243t244 -101t244 101t101 243q0 143 -101 244t-244 101zM509 1202l-192 -192l-95 96
l191 191h192l191 -191l-95 -96z" />
    <glyph glyph-name="otilde" unicode="&#xf5;" horiz-adv-x="1025" 
d="M509 912q189 0 322.5 -133.5t133.5 -322.5t-133.5 -322.5t-322.5 -133.5t-322.5 133.5t-133.5 322.5t133.5 322.5t322.5 133.5zM507 798q-143 0 -244 -101t-101 -244q0 -142 101 -243t244 -101t244 101t101 243q0 143 -101 244t-244 101zM686 1108q50 -21 78 -21
q10 0 17 3q45 16 60 46q7 16 7 33q0 16 -6 33q-14 37 -48 53q-20 9 -39 9q-16 0 -33 -6l-4 -2l-17 47l4 2q25 9 50 9q30 0 59 -13q52 -25 72 -81q9 -24 9 -48q0 -30 -13 -58q-25 -53 -81 -73q-22 -8 -45 -8q-35 0 -73 18l-350 164l-2 3q-49 21 -77 21q-10 0 -17 -3
q-45 -16 -59 -46q-8 -16 -8 -33q0 -16 6 -33q14 -37 49 -53q19 -9 38 -9q16 0 33 6l4 2l17 -47l-4 -2q-25 -9 -50 -9q-30 0 -58 14q-53 24 -73 80q-9 24 -9 48q0 30 14 59q24 52 80 72q22 8 45 8q35 0 73 -18l350 -164z" />
    <glyph glyph-name="odieresis" unicode="&#xf6;" horiz-adv-x="1025" 
d="M509 912q189 0 322.5 -133.5t133.5 -322.5t-133.5 -322.5t-322.5 -133.5t-322.5 133.5t-133.5 322.5t133.5 322.5t322.5 133.5zM507 798q-143 0 -244 -101t-101 -244q0 -142 101 -243t244 -101t244 101t101 243q0 143 -101 244t-244 101zM418.5 1215q18.5 -19 18.5 -45
q0 -27 -18.5 -45.5t-45.5 -18.5q-26 0 -45 18.5t-19 45.5q0 26 19 45t45 19q27 0 45.5 -19zM690.5 1207q18.5 -19 18.5 -45q0 -27 -18.5 -45.5t-45.5 -18.5q-26 0 -45 18.5t-19 45.5q0 26 19 45t45 19q27 0 45.5 -19z" />
    <glyph glyph-name="divide" unicode="&#xf7;" horiz-adv-x="701" 
d="M83 799v120h527v-120h-527zM397.5 1301q18.5 -19 18.5 -45q0 -27 -18.5 -45.5t-45.5 -18.5q-26 0 -45 18.5t-19 45.5q0 26 19 45t45 19q27 0 45.5 -19zM387.5 507q18.5 -19 18.5 -45q0 -27 -18.5 -45.5t-45.5 -18.5q-26 0 -45 18.5t-19 45.5q0 26 19 45t45 19
q27 0 45.5 -19z" />
    <glyph glyph-name="oslash" unicode="&#xf8;" horiz-adv-x="1025" 
d="M313 168q85 -59 194 -59q143 0 244 101t101 243q0 110 -59 195zM696 743q-83 55 -189 55q-143 0 -244 -101t-101 -244q0 -105 56 -188zM140 187q-87 116 -87 269q0 189 133.5 322.5t322.5 133.5q153 0 269 -87l87 87h192l-182 -182q90 -118 90 -274q0 -189 -133.5 -322.5
t-322.5 -133.5q-156 0 -274 90l-90 -90h-192z" />
    <glyph glyph-name="ugrave" unicode="&#xf9;" horiz-adv-x="1017" 
d="M48 912h120v-460q0 -142 98 -242.5t241 -100.5t240 102t98 243v458h120v-456q0 -189 -133.5 -322.5t-322.5 -133.5t-322.5 133.5t-138.5 318.5v460zM552 1229q3 -2 5 -4q19 -19 19 -46q0 -26 -19 -45t-45 -19q-27 0 -45 19q-3 2 -5 5l-95 95l90 90z" />
    <glyph glyph-name="uacute" unicode="&#xfa;" horiz-adv-x="1017" 
d="M48 912h120v-460q0 -142 98 -242.5t241 -100.5t240 102t98 243v458h120v-456q0 -189 -133.5 -322.5t-322.5 -133.5t-322.5 133.5t-138.5 318.5v460zM556 1324l90 -90l-95 -95q-2 -3 -4 -5q-19 -19 -46 -19q-26 0 -45 19t-19 45q0 27 19 46q2 2 5 4z" />
    <glyph glyph-name="ucircumflex" unicode="&#xfb;" horiz-adv-x="1017" 
d="M48 912h120v-460q0 -142 98 -242.5t241 -100.5t240 102t98 243v458h120v-456q0 -189 -133.5 -322.5t-322.5 -133.5t-322.5 133.5t-138.5 318.5v460zM507 1202l-192 -192l-95 96l191 191h192l191 -191l-95 -96z" />
    <glyph glyph-name="udieresis" unicode="&#xfc;" horiz-adv-x="1017" 
d="M48 912h120v-460q0 -142 98 -242.5t241 -100.5t240 102t98 243v458h120v-456q0 -189 -133.5 -322.5t-322.5 -133.5t-322.5 133.5t-138.5 318.5v460zM416.5 1215q18.5 -19 18.5 -45q0 -27 -18.5 -45.5t-45.5 -18.5q-26 0 -45 18.5t-19 45.5q0 26 19 45t45 19
q27 0 45.5 -19zM688.5 1207q18.5 -19 18.5 -45q0 -27 -18.5 -45.5t-45.5 -18.5q-26 0 -45 18.5t-19 45.5q0 26 19 45t45 19q27 0 45.5 -19z" />
    <glyph glyph-name="yacute" unicode="&#xfd;" horiz-adv-x="1168" 
d="M629 912v-316l316 316h171l-1228 -1228h-171l777 777v451h135zM860 1309l90 -90l-95 -95q-2 -3 -4 -5q-19 -19 -46 -19q-26 0 -45 19t-19 45q0 27 19 46q2 2 5 4z" />
    <glyph glyph-name="thorn" unicode="&#xfe;" horiz-adv-x="1010" 
d="M167 765q7 8 13 14q133 133 322 133t322.5 -133.5t133.5 -322.5t-133.5 -322.5t-322.5 -133.5t-322 134l-13 13v-147h-1v-294h-120v1206h1v354h120v-501zM167 536v-154q20 -94 93 -167q101 -101 244 -101t244 101t101 244q0 142 -101 243t-244 101t-244 -101
q-73 -73 -93 -166z" />
    <glyph glyph-name="ydieresis" unicode="&#xff;" horiz-adv-x="1168" 
d="M629 912v-316l316 316h171l-1228 -1228h-171l777 777v451h135zM735.5 1207q18.5 -19 18.5 -45q0 -27 -18.5 -45.5t-45.5 -18.5q-26 0 -45 18.5t-19 45.5q0 26 19 45t45 19q27 0 45.5 -19zM1007.5 1199q18.5 -19 18.5 -45q0 -27 -18.5 -45.5t-45.5 -18.5q-26 0 -45 18.5
t-19 45.5q0 26 19 45t45 19q27 0 45.5 -19z" />
    <glyph glyph-name="dotlessi" unicode="&#x131;" horiz-adv-x="271" 
d="M195 919v-912h-135v912h135z" />
    <glyph glyph-name="circumflex" unicode="&#x2c6;" horiz-adv-x="693" 
d="M347 1202l-192 -192l-95 96l191 191h192l191 -191l-95 -96z" />
    <glyph glyph-name="caron" unicode="&#x2c7;" horiz-adv-x="701" 
d="M539 1297l95 -96l-191 -191h-192l-191 191l95 96l192 -192z" />
    <glyph glyph-name="uni02C9" unicode="&#x2c9;" horiz-adv-x="791" 
d="M53 1244h678v-135h-678v135z" />
    <glyph glyph-name="breve" unicode="&#x2d8;" horiz-adv-x="678" 
d="M160 1267q5 -60 49 -103q49 -50 119 -50q71 0 121 50q43 43 48 103h90q-6 -96 -75 -165q-76 -76 -184 -76t-184 76q-69 69 -75 165h91z" />
    <glyph glyph-name="dotaccent" unicode="&#x2d9;" horiz-adv-x="203" 
d="M145.5 1230q18.5 -19 18.5 -45q0 -27 -18.5 -45.5t-45.5 -18.5q-26 0 -45 18.5t-19 45.5q0 26 19 45t45 19q27 0 45.5 -19z" />
    <glyph glyph-name="ring" unicode="&#x2da;" horiz-adv-x="445" 
d="M212 1350q59 0 101 -42t42 -101q0 -60 -42 -102t-101 -42q-60 0 -102 42t-42 102q0 59 42 101t102 42zM211 1314q-45 0 -77 -31.5t-32 -76.5t32 -77t77 -32t76.5 32t31.5 77t-31.5 76.5t-76.5 31.5z" />
    <glyph glyph-name="ogonek" unicode="&#x2db;" horiz-adv-x="678" 
d="M532 -153l48 -48l-3 -3q-83 -83 -201 -83q-119 0 -202.5 83.5t-83.5 201.5v3h71v-4q0 -89 63 -152.5t153 -63.5q89 0 152 63z" />
    <glyph glyph-name="tilde" unicode="&#x2dc;" horiz-adv-x="927" 
d="M648 1108q50 -21 78 -21q10 0 17 3q45 16 60 46q7 16 7 33q0 16 -6 33q-14 37 -48 53q-20 9 -39 9q-16 0 -33 -6l-4 -2l-17 47l4 2q25 9 50 9q30 0 59 -13q52 -25 72 -81q9 -24 9 -48q0 -30 -13 -58q-25 -53 -81 -73q-22 -8 -45 -8q-35 0 -73 18l-350 164l-2 3
q-49 21 -77 21q-10 0 -17 -3q-45 -16 -59 -46q-8 -16 -8 -33q0 -16 6 -33q14 -37 49 -53q19 -9 38 -9q16 0 33 6l4 2l17 -47l-4 -2q-25 -9 -50 -9q-30 0 -58 14q-53 24 -73 80q-9 24 -9 48q0 30 14 59q24 52 80 72q22 8 45 8q35 0 73 -18l350 -164z" />
    <glyph glyph-name="hungarumlaut" unicode="&#x2dd;" horiz-adv-x="641" 
d="M157 1085l-90 90l95 95q2 3 5 5q18 19 45 19q26 0 45 -19t19 -45q0 -27 -19 -46q-2 -2 -5 -4zM414 1085l-90 90l95 95q2 3 5 5q18 19 45 19q26 0 45 -19t19 -45q0 -27 -19 -46q-2 -2 -5 -4z" />
    <glyph glyph-name="endash" unicode="&#x2013;" horiz-adv-x="897" 
d="M37 912h815v-135h-815v135z" />
    <glyph glyph-name="emdash" unicode="&#x2014;" horiz-adv-x="1620" 
d="M98 912h1432v-135h-1432v135z" />
    <glyph glyph-name="quoteleft" unicode="&#x2018;" horiz-adv-x="392" 
d="M252 1425q3 -2 5 -4q19 -19 19 -46q0 -26 -19 -45t-45 -19q-27 0 -45 19q-3 2 -5 5l-95 95l90 90z" />
    <glyph glyph-name="quoteright" unicode="&#x2019;" horiz-adv-x="384" 
d="M186 1520l90 -90l-95 -95q-2 -3 -5 -5q-18 -19 -45 -19q-26 0 -45 19t-19 45q0 27 19 46q2 2 5 4z" />
    <glyph glyph-name="quotesinglbase" unicode="&#x201a;" horiz-adv-x="354" 
d="M178 95l90 -90l-95 -95q-2 -3 -5 -5q-18 -19 -45 -19q-26 0 -45 19t-19 45q0 27 19 46q2 2 5 4z" />
    <glyph glyph-name="quotedblleft" unicode="&#x201c;" horiz-adv-x="633" 
d="M252 1425q3 -2 5 -4q19 -19 19 -46q0 -26 -19 -45t-45 -19q-27 0 -45 19q-3 2 -5 5l-95 95l90 90zM509 1425q3 -2 5 -4q19 -19 19 -46q0 -26 -19 -45t-45 -19q-27 0 -45 19q-3 2 -5 5l-95 95l90 90z" />
    <glyph glyph-name="quotedblright" unicode="&#x201d;" horiz-adv-x="618" 
d="M443 1520l90 -90l-95 -95q-2 -3 -5 -5q-18 -19 -45 -19q-26 0 -45 19t-19 45q0 27 19 46q2 2 5 4zM186 1520l90 -90l-95 -95q-2 -3 -5 -5q-18 -19 -45 -19q-26 0 -45 19t-19 45q0 27 19 46q2 2 5 4z" />
    <glyph glyph-name="quotedblbase" unicode="&#x201e;" horiz-adv-x="603" 
d="M428 88l90 -90l-95 -95q-2 -3 -5 -5q-18 -19 -45 -19q-26 0 -45 19t-19 45q0 27 19 46q2 2 5 4zM171 88l90 -90l-95 -95q-2 -3 -5 -5q-18 -19 -45 -19q-26 0 -45 19t-19 45q0 27 19 46q2 2 5 4z" />
    <glyph glyph-name="dagger" unicode="&#x2020;" 
 />
    <glyph glyph-name="daggerdbl" unicode="&#x2021;" 
 />
    <glyph glyph-name="bullet" unicode="&#x2022;" horiz-adv-x="528" 
d="M406 857.5q58 -57.5 58 -139.5q0 -81 -58 -138.5t-139 -57.5q-82 0 -139.5 57.5t-57.5 138.5q0 82 57.5 139.5t139.5 57.5q81 0 139 -57.5z" />
    <glyph glyph-name="ellipsis" unicode="&#x2026;" horiz-adv-x="934" 
d="M152.5 114q18.5 -19 18.5 -45q0 -27 -18.5 -45.5t-45.5 -18.5q-26 0 -45 18.5t-19 45.5q0 26 19 45t45 19q27 0 45.5 -19zM476.5 117q18.5 -19 18.5 -45q0 -27 -18.5 -45.5t-45.5 -18.5q-26 0 -45 18.5t-19 45.5q0 26 19 45t45 19q27 0 45.5 -19zM807.5 117
q18.5 -19 18.5 -45q0 -27 -18.5 -45.5t-45.5 -18.5q-26 0 -45 18.5t-19 45.5q0 26 19 45t45 19q27 0 45.5 -19z" />
    <glyph glyph-name="guilsinglleft" unicode="&#x2039;" horiz-adv-x="799" 
d="M601 234l-563 563l2 2l-2 2l397 397h170l-399 -399l565 -565h-170z" />
    <glyph glyph-name="guilsinglright" unicode="&#x203a;" horiz-adv-x="806" 
d="M38 234l565 565l-399 399h170l397 -397l-2 -2l2 -2l-563 -563h-170z" />
    <glyph glyph-name="fraction" unicode="&#x2044;" horiz-adv-x="1620" 
d="M-4 0l1432 1432h192l-1432 -1432h-192z" />
    <glyph glyph-name="fraction" unicode="&#x2215;" horiz-adv-x="1620" 
d="M-4 0l1432 1432h192l-1432 -1432h-192z" />
    <glyph glyph-name="franc" unicode="&#x20a3;" horiz-adv-x="950" 
d="M240 606v826h633v-128h-498v-385h325v-120h-325v-193h191v-135h-191v-471h-135v471h-191v135h191z" />
    <glyph glyph-name="lira" unicode="&#x20a4;" 
d="M126 912q-12 48 -12 97q0 72 26 144q60 165 218 239q87 41 175 41q73 0 148 -28q117 -42 188 -137l-104 -104q-36 53 -109 91q-61 23 -120 23q-48 0 -94 -15q-102 -35 -160 -142q-12 -61 -12 -108q0 -50 15 -83l8 -18h469v-135h-395q35 -75 49 -151h346v-135h-338
q-5 -89 -39 -180q-9 -24 -18 -46q18 3 39 4q31 3 62 3q212 0 381 -140l3 1q20 -8 43 -15q67 -16 129 -16h20l72 -140q-45 -7 -92 -7q-81 0 -165 22q-58 15 -110 39l6 4q-128 107 -291 107q-23 0 -46 -2q-112 -9 -201 -65q-31 -27 -67 -51l-4 -4l-91 122q131 81 186 232
q24 67 28 132h-322v135h310q-11 45 -32 89q-23 33 -41 62h-237v135h179z" />
    <glyph glyph-name="peseta" unicode="&#x20a7;" horiz-adv-x="1530" 
d="M379.21 930q75.6025 0 128.704 59.5t53.1016 143.5q0 83 -53.1016 142.5t-128.704 59.5l-231.306 1v-406h231.306zM147.904 2h-121.504v1432h352.81q117.903 0 201.605 -92.5t83.7021 -223.5q0 -132 -83.7021 -224q-64.8018 -72 -151.204 -88h-281.707v-804zM688 1206
h120v-287h203v-120h-203v-799h-120v1206zM1204 520q-81 0 -138.5 57.5t-57.5 138.5t57.5 138.5t138.5 57.5q78 0 134 -53l-76 -73q-25 20 -57 20q-37 0 -63.5 -26.5t-26.5 -63.5t27 -63q22 -23 53 -27q127 -1 218 -91q92 -92 92 -222t-92 -221.5t-222 -91.5
q-129 0 -221 91.5t-92 221.5h101q0 -89 63 -151.5t152 -62.5q88 0 151 62.5t63 151.5q0 88 -63 151q-53 55 -141 56z" />
    <glyph glyph-name="Euro" unicode="&#x20ac;" horiz-adv-x="1440" 
d="M182 514q36 -119 119 -216q146 -172 353 -172q206 0 352.5 172t146.5 415l112 4q0 -297 -178.5 -507t-431.5 -210t-431 210q-115 134 -156 304h-359v135h338q-2 33 -2 68q0 34 2 67h-421v135h442q41 171 156 306q178 210 431 210l-1 -135q-207 0 -353 -172
q-80 -94 -117 -209h475v-135h-502q-3 -35 -3 -71q0 -33 3 -64h585v-135h-560z" />
    <glyph glyph-name="afii61352" unicode="&#x2116;" horiz-adv-x="3639" 
d="M1420 1240l-1240 -1240h-192l1432 1432l1 1l1 -1h133v-1240l1241 1241h192l-1433 -1433h-135v1240zM3268.93 1432.18q124.734 0 212.841 -80.0967t88.1064 -193.492t-88.1064 -193.492t-212.841 -80.0967q-124.735 0 -212.842 80.0967t-88.1064 193.492t88.1064 193.492
t212.842 80.0967zM3267.61 1363.78q-94.376 0 -161.033 -60.5977q-66.6572 -60.5967 -66.6572 -146.394q0 -85.1963 66.6572 -145.794t161.033 -60.5977t161.033 60.5977t66.6572 145.794q0 85.7969 -66.6572 146.394q-66.6572 60.5977 -161.033 60.5977zM3011 750h516.5
v-135h-516.5v135z" />
    <glyph glyph-name="trademark" unicode="&#x2122;" horiz-adv-x="1416" 
d="M128.353 1380.63v-521.632h-60.752v572.835h261.457v-51.2031h-200.705zM839.118 1139.22v216.014l-558.465 -496.431h-86.4023l644.867 572.835h61.2012v-238.414l268.208 238.414h61.2012v-575.635h-61.2012v499.23l-558.466 -496.431h-86.4023z" />
    <glyph glyph-name="partialdiff" unicode="&#x2202;" 
 />
    <glyph glyph-name="Delta" unicode="&#x2206;" horiz-adv-x="1673" 
d="M60 -3l1433 1432h136v-1432h-1569zM1493 142v1096l-1096 -1096h1096z" />
    <glyph glyph-name="product" unicode="&#x220f;" horiz-adv-x="1515" 
 />
    <glyph glyph-name="summation" unicode="&#x2211;" horiz-adv-x="1206" 
 />
    <glyph glyph-name="minus" unicode="&#x2212;" horiz-adv-x="701" 
d="M83 799v120h527v-120h-527z" />
    <glyph glyph-name="radical" unicode="&#x221a;" 
 />
    <glyph glyph-name="infinity" unicode="&#x221e;" 
 />
    <glyph glyph-name="integral" unicode="&#x222b;" horiz-adv-x="665" 
d="M629 1607q38 -1 65 -27q28 -28 28 -68q0 -39 -28 -66.5t-67 -27.5t-66 28q-10 9 -17 21q-35 -20 -69 -55q-14 -14 -24 -35q-29 -62 -33 -191l7 -5v-932q0 -103 -36 -181q-23 -50 -62 -89q-99 -100 -237 -100q-39 0 -66.5 27.5t-27.5 66.5q0 40 27.5 67.5t66.5 27.5
t67 -27q10 -10 16 -21q34 20 67 53q13 13 23 34q29 60 34 191l-6 6l-3 933q1 103 36 179q24 52 64 90q101 101 241 102v-1z" />
    <glyph glyph-name="approxequal" unicode="&#x2248;" horiz-adv-x="1213" 
d="M867 854q71 -30 112 -30q14 0 25 4q64 23 85 67q11 22 11 48q0 22 -9 47q-19 53 -69 76q-27 13 -56 13q-23 0 -47 -9l-7 -3l-24 68l7 3q36 13 71 13q43 0 85 -19q75 -36 104 -116q13 -35 13 -70q0 -42 -19 -84q-36 -76 -116 -105q-31 -12 -65 -12q-50 0 -106 26l-505 237
l-2 5q-72 30 -112 30q-14 0 -24 -4q-64 -23 -85 -67q-11 -23 -11 -48q0 -23 9 -47q19 -53 69 -76q27 -13 56 -13q23 0 47 9l6 2l25 -67l-7 -3q-36 -13 -71 -13q-43 0 -84 20q-76 35 -105 115q-13 35 -13 70q0 42 20 84q35 76 115 105q31 11 64 11q51 0 107 -26l505 -236z
M867 419q71 -30 112 -30q14 0 25 4q64 23 85 67q11 22 11 48q0 22 -9 47q-19 53 -69 76q-27 13 -56 13q-23 0 -47 -9l-7 -3l-24 68l7 3q36 13 71 13q43 0 85 -19q75 -36 104 -116q13 -35 13 -70q0 -42 -19 -84q-36 -76 -116 -105q-31 -12 -65 -12q-50 0 -106 26l-505 237
l-2 5q-72 30 -112 30q-14 0 -24 -4q-64 -23 -85 -67q-11 -23 -11 -48q0 -23 9 -47q19 -53 69 -76q27 -13 56 -13q23 0 47 9l6 2l25 -67l-7 -3q-36 -13 -71 -13q-43 0 -84 20q-76 35 -105 115q-13 35 -13 70q0 42 20 84q35 76 115 105q31 11 64 11q51 0 107 -26l505 -236z
" />
    <glyph glyph-name="lessequal" unicode="&#x2264;" horiz-adv-x="731" 
d="M37 656l474 474h170l-354 -354h363v-120h-653zM83 0v120h527v-120h-527z" />
    <glyph glyph-name="greaterequal" unicode="&#x2265;" horiz-adv-x="739" 
d="M37 656v120h363l-354 354h170l474 -474h-653zM83 0v120h527v-120h-527z" />
    <glyph glyph-name="uniF001" unicode="&#xf001;" horiz-adv-x="1073" 
 />
    <glyph glyph-name="uniF001" unicode="&#xfb01;" horiz-adv-x="1073" 
 />
    <glyph glyph-name="uniF002" unicode="&#xf002;" horiz-adv-x="1081" 
 />
    <glyph glyph-name="uniF002" unicode="&#xfb02;" horiz-adv-x="1081" 
 />
    </font>
</defs>
</svg>
